<mxfile host="app.diagrams.net" modified="2024-06-03T12:23:20.877Z" agent="Mozilla/5.0 (Windows NT 10.0; Win64; x64) AppleWebKit/537.36 (KHTML, like Gecko) Chrome/125.0.0.0 Safari/537.36" etag="p15iGiWBa0SAw-RP7r7O" version="24.4.13" type="device" pages="3">
  <diagram name="Page-1" id="9f46799a-70d6-7492-0946-bef42562c5a5">
    <mxGraphModel dx="3725" dy="2260" grid="1" gridSize="10" guides="1" tooltips="1" connect="1" arrows="1" fold="1" page="1" pageScale="1" pageWidth="1100" pageHeight="850" background="none" math="0" shadow="0">
      <root>
        <mxCell id="0" />
        <mxCell id="1" parent="0" />
        <mxCell id="78961159f06e98e8-17" value="Hotel" style="swimlane;html=1;fontStyle=1;align=center;verticalAlign=top;childLayout=stackLayout;horizontal=1;startSize=26;horizontalStack=0;resizeParent=1;resizeLast=0;collapsible=1;marginBottom=0;swimlaneFillColor=#ffffff;rounded=0;shadow=0;comic=0;labelBackgroundColor=none;strokeWidth=1;fillColor=#eeeeee;fontFamily=Verdana;fontSize=14;strokeColor=#36393d;" parent="1" vertex="1">
          <mxGeometry x="280" y="-190" width="160" height="307" as="geometry" />
        </mxCell>
        <mxCell id="78961159f06e98e8-21" value="&lt;span style=&quot;text-align: center; font-size: 14px;&quot;&gt;&lt;u&gt;Hotel _ID&lt;/u&gt;&lt;/span&gt;: int (PK)" style="text;html=1;strokeColor=none;fillColor=none;align=left;verticalAlign=top;spacingLeft=4;spacingRight=4;whiteSpace=wrap;overflow=hidden;rotatable=0;points=[[0,0.5],[1,0.5]];portConstraint=eastwest;fontSize=14;" parent="78961159f06e98e8-17" vertex="1">
          <mxGeometry y="26" width="160" height="26" as="geometry" />
        </mxCell>
        <mxCell id="78961159f06e98e8-25" value="&lt;span style=&quot;text-align: center; font-size: 14px;&quot;&gt;Name&amp;nbsp;&lt;/span&gt;: varchar" style="text;html=1;strokeColor=none;fillColor=none;align=left;verticalAlign=top;spacingLeft=4;spacingRight=4;whiteSpace=wrap;overflow=hidden;rotatable=0;points=[[0,0.5],[1,0.5]];portConstraint=eastwest;fontSize=14;" parent="78961159f06e98e8-17" vertex="1">
          <mxGeometry y="52" width="160" height="26" as="geometry" />
        </mxCell>
        <mxCell id="AnVdaM48TsKzXqkaSUUS-2" value="&lt;span style=&quot;text-align: center; font-size: 14px;&quot;&gt;Address&lt;/span&gt;: varchar" style="text;html=1;strokeColor=none;fillColor=none;align=left;verticalAlign=top;spacingLeft=4;spacingRight=4;whiteSpace=wrap;overflow=hidden;rotatable=0;points=[[0,0.5],[1,0.5]];portConstraint=eastwest;fontSize=14;" parent="78961159f06e98e8-17" vertex="1">
          <mxGeometry y="78" width="160" height="26" as="geometry" />
        </mxCell>
        <mxCell id="78961159f06e98e8-33" value="&lt;span style=&quot;text-align: center; font-size: 14px;&quot;&gt;Country&lt;/span&gt;: varchar" style="text;html=1;strokeColor=none;fillColor=none;align=left;verticalAlign=top;spacingLeft=4;spacingRight=4;whiteSpace=wrap;overflow=hidden;rotatable=0;points=[[0,0.5],[1,0.5]];portConstraint=eastwest;fontSize=14;" parent="78961159f06e98e8-17" vertex="1">
          <mxGeometry y="104" width="160" height="26" as="geometry" />
        </mxCell>
        <mxCell id="78961159f06e98e8-24" value="&lt;span style=&quot;text-align: center; font-size: 14px;&quot;&gt;State&amp;nbsp;&lt;/span&gt;: varchar" style="text;html=1;strokeColor=none;fillColor=none;align=left;verticalAlign=top;spacingLeft=4;spacingRight=4;whiteSpace=wrap;overflow=hidden;rotatable=0;points=[[0,0.5],[1,0.5]];portConstraint=eastwest;fontSize=14;" parent="78961159f06e98e8-17" vertex="1">
          <mxGeometry y="130" width="160" height="26" as="geometry" />
        </mxCell>
        <mxCell id="78961159f06e98e8-26" value="&lt;span style=&quot;text-align: center; font-size: 14px;&quot;&gt;City&lt;/span&gt;: varchar" style="text;html=1;strokeColor=none;fillColor=none;align=left;verticalAlign=top;spacingLeft=4;spacingRight=4;whiteSpace=wrap;overflow=hidden;rotatable=0;points=[[0,0.5],[1,0.5]];portConstraint=eastwest;fontSize=14;" parent="78961159f06e98e8-17" vertex="1">
          <mxGeometry y="156" width="160" height="26" as="geometry" />
        </mxCell>
        <mxCell id="78961159f06e98e8-37" value="&lt;span style=&quot;text-align: center; font-size: 14px;&quot;&gt;Zip_Code&lt;/span&gt;: varchar" style="text;html=1;strokeColor=none;fillColor=none;align=left;verticalAlign=top;spacingLeft=4;spacingRight=4;whiteSpace=wrap;overflow=hidden;rotatable=0;points=[[0,0.5],[1,0.5]];portConstraint=eastwest;fontSize=14;" parent="78961159f06e98e8-17" vertex="1">
          <mxGeometry y="182" width="160" height="26" as="geometry" />
        </mxCell>
        <mxCell id="78961159f06e98e8-23" value="&lt;span style=&quot;text-align: center; font-size: 14px;&quot;&gt;Rating&amp;nbsp;&lt;/span&gt;: float" style="text;html=1;strokeColor=none;fillColor=none;align=left;verticalAlign=top;spacingLeft=4;spacingRight=4;whiteSpace=wrap;overflow=hidden;rotatable=0;points=[[0,0.5],[1,0.5]];portConstraint=eastwest;fontSize=14;" parent="78961159f06e98e8-17" vertex="1">
          <mxGeometry y="208" width="160" height="26" as="geometry" />
        </mxCell>
        <mxCell id="AnVdaM48TsKzXqkaSUUS-14" value="&lt;span style=&quot;text-align: center; font-size: 14px;&quot;&gt;Country&lt;/span&gt;: varchar" style="text;html=1;strokeColor=none;fillColor=none;align=left;verticalAlign=top;spacingLeft=4;spacingRight=4;whiteSpace=wrap;overflow=hidden;rotatable=0;points=[[0,0.5],[1,0.5]];portConstraint=eastwest;fontSize=14;" parent="78961159f06e98e8-17" vertex="1">
          <mxGeometry y="234" width="160" height="26" as="geometry" />
        </mxCell>
        <mxCell id="78961159f06e98e8-36" value="&lt;span style=&quot;text-align: center; font-size: 14px;&quot;&gt;Description&lt;/span&gt;: varchar" style="text;html=1;strokeColor=none;fillColor=none;align=left;verticalAlign=top;spacingLeft=4;spacingRight=4;whiteSpace=wrap;overflow=hidden;rotatable=0;points=[[0,0.5],[1,0.5]];portConstraint=eastwest;fontSize=14;" parent="78961159f06e98e8-17" vertex="1">
          <mxGeometry y="260" width="160" height="26" as="geometry" />
        </mxCell>
        <mxCell id="78961159f06e98e8-30" value="&lt;span style=&quot;font-family: Helvetica; font-size: 14px; text-wrap: wrap;&quot;&gt;Transportation&lt;/span&gt;" style="swimlane;html=1;fontStyle=1;align=center;verticalAlign=top;childLayout=stackLayout;horizontal=1;startSize=30;horizontalStack=0;resizeParent=1;resizeLast=0;collapsible=1;marginBottom=0;swimlaneFillColor=#ffffff;rounded=0;shadow=0;comic=0;labelBackgroundColor=none;strokeWidth=1;fillColor=#eeeeee;fontFamily=Verdana;fontSize=14;strokeColor=#36393d;" parent="1" vertex="1">
          <mxGeometry x="-670" y="-80" width="160" height="170" as="geometry" />
        </mxCell>
        <mxCell id="78961159f06e98e8-31" value="&lt;span style=&quot;text-align: center;&quot;&gt;&lt;u&gt;Transport_ID&amp;nbsp;&lt;/u&gt;:&lt;/span&gt;&amp;nbsp;int&amp;nbsp; (PK)" style="text;html=1;strokeColor=none;fillColor=none;align=left;verticalAlign=top;spacingLeft=4;spacingRight=4;whiteSpace=wrap;overflow=hidden;rotatable=0;points=[[0,0.5],[1,0.5]];portConstraint=eastwest;fontSize=14;" parent="78961159f06e98e8-30" vertex="1">
          <mxGeometry y="30" width="160" height="26" as="geometry" />
        </mxCell>
        <mxCell id="78961159f06e98e8-32" value="&lt;span style=&quot;font-size: 14px; text-align: center;&quot;&gt;Type&amp;nbsp;&lt;/span&gt;: varchar" style="text;html=1;strokeColor=none;fillColor=none;align=left;verticalAlign=top;spacingLeft=4;spacingRight=4;whiteSpace=wrap;overflow=hidden;rotatable=0;points=[[0,0.5],[1,0.5]];portConstraint=eastwest;fontSize=14;" parent="78961159f06e98e8-30" vertex="1">
          <mxGeometry y="56" width="160" height="28" as="geometry" />
        </mxCell>
        <mxCell id="78961159f06e98e8-34" value="&lt;span style=&quot;font-size: 14px; text-align: center;&quot;&gt;Schedule&amp;nbsp;&lt;/span&gt;: float" style="text;html=1;strokeColor=none;fillColor=none;align=left;verticalAlign=top;spacingLeft=4;spacingRight=4;whiteSpace=wrap;overflow=hidden;rotatable=0;points=[[0,0.5],[1,0.5]];portConstraint=eastwest;fontSize=14;" parent="78961159f06e98e8-30" vertex="1">
          <mxGeometry y="84" width="160" height="26" as="geometry" />
        </mxCell>
        <mxCell id="78961159f06e98e8-39" value="&lt;span style=&quot;font-size: 14px; text-align: center;&quot;&gt;Price&amp;nbsp;&lt;/span&gt;: float" style="text;html=1;strokeColor=none;fillColor=none;align=left;verticalAlign=top;spacingLeft=4;spacingRight=4;whiteSpace=wrap;overflow=hidden;rotatable=0;points=[[0,0.5],[1,0.5]];portConstraint=eastwest;fontSize=14;" parent="78961159f06e98e8-30" vertex="1">
          <mxGeometry y="110" width="160" height="26" as="geometry" />
        </mxCell>
        <mxCell id="78961159f06e98e8-40" value="&lt;span style=&quot;font-size: 14px; text-align: center;&quot;&gt;Contact_info&amp;nbsp;&lt;/span&gt;: varchar" style="text;html=1;strokeColor=none;fillColor=none;align=left;verticalAlign=top;spacingLeft=4;spacingRight=4;whiteSpace=wrap;overflow=hidden;rotatable=0;points=[[0,0.5],[1,0.5]];portConstraint=eastwest;fontSize=14;" parent="78961159f06e98e8-30" vertex="1">
          <mxGeometry y="136" width="160" height="26" as="geometry" />
        </mxCell>
        <mxCell id="78961159f06e98e8-43" value="Payment" style="swimlane;html=1;fontStyle=1;align=center;verticalAlign=top;childLayout=stackLayout;horizontal=1;startSize=26;horizontalStack=0;resizeParent=1;resizeLast=0;collapsible=1;marginBottom=0;swimlaneFillColor=#ffffff;rounded=0;shadow=0;comic=0;labelBackgroundColor=none;strokeWidth=1;fillColor=#eeeeee;fontFamily=Verdana;fontSize=14;strokeColor=#36393d;" parent="1" vertex="1">
          <mxGeometry x="760" y="-210" width="200" height="170" as="geometry" />
        </mxCell>
        <mxCell id="78961159f06e98e8-44" value="&lt;span style=&quot;font-size: 14px; text-align: center; text-decoration-line: underline;&quot;&gt;Payment_ID&lt;/span&gt;&amp;nbsp;: int (PK)" style="text;html=1;strokeColor=none;fillColor=none;align=left;verticalAlign=top;spacingLeft=4;spacingRight=4;whiteSpace=wrap;overflow=hidden;rotatable=0;points=[[0,0.5],[1,0.5]];portConstraint=eastwest;fontSize=14;" parent="78961159f06e98e8-43" vertex="1">
          <mxGeometry y="26" width="200" height="26" as="geometry" />
        </mxCell>
        <mxCell id="78961159f06e98e8-45" value="&lt;span style=&quot;font-size: 14px; text-align: center;&quot;&gt;Amount :&lt;/span&gt;&amp;nbsp;float" style="text;html=1;strokeColor=none;fillColor=none;align=left;verticalAlign=top;spacingLeft=4;spacingRight=4;whiteSpace=wrap;overflow=hidden;rotatable=0;points=[[0,0.5],[1,0.5]];portConstraint=eastwest;fontSize=14;" parent="78961159f06e98e8-43" vertex="1">
          <mxGeometry y="52" width="200" height="26" as="geometry" />
        </mxCell>
        <mxCell id="78961159f06e98e8-49" value="&lt;span style=&quot;font-size: 14px; text-align: center;&quot;&gt;Payment_Date :&lt;/span&gt;&amp;nbsp;date" style="text;html=1;strokeColor=none;fillColor=none;align=left;verticalAlign=top;spacingLeft=4;spacingRight=4;whiteSpace=wrap;overflow=hidden;rotatable=0;points=[[0,0.5],[1,0.5]];portConstraint=eastwest;fontSize=14;" parent="78961159f06e98e8-43" vertex="1">
          <mxGeometry y="78" width="200" height="26" as="geometry" />
        </mxCell>
        <mxCell id="78961159f06e98e8-50" value="&lt;span style=&quot;font-size: 14px; text-align: center;&quot;&gt;Payment_Method&amp;nbsp;&lt;/span&gt;:&amp;nbsp; varchar" style="text;html=1;strokeColor=none;fillColor=none;align=left;verticalAlign=top;spacingLeft=4;spacingRight=4;whiteSpace=wrap;overflow=hidden;rotatable=0;points=[[0,0.5],[1,0.5]];portConstraint=eastwest;fontSize=14;" parent="78961159f06e98e8-43" vertex="1">
          <mxGeometry y="104" width="200" height="26" as="geometry" />
        </mxCell>
        <mxCell id="78961159f06e98e8-52" value="&lt;span style=&quot;font-size: 14px; text-align: center;&quot;&gt;Transaction_ID&amp;nbsp;&lt;/span&gt;: int" style="text;html=1;strokeColor=none;fillColor=none;align=left;verticalAlign=top;spacingLeft=4;spacingRight=4;whiteSpace=wrap;overflow=hidden;rotatable=0;points=[[0,0.5],[1,0.5]];portConstraint=eastwest;fontSize=14;" parent="78961159f06e98e8-43" vertex="1">
          <mxGeometry y="130" width="200" height="26" as="geometry" />
        </mxCell>
        <mxCell id="78961159f06e98e8-56" value="Event" style="swimlane;html=1;fontStyle=1;align=center;verticalAlign=top;childLayout=stackLayout;horizontal=1;startSize=26;horizontalStack=0;resizeParent=1;resizeLast=0;collapsible=1;marginBottom=0;swimlaneFillColor=#ffffff;rounded=0;shadow=0;comic=0;labelBackgroundColor=default;strokeWidth=1;fillColor=#eeeeee;fontFamily=Verdana;fontSize=14;strokeColor=#36393d;" parent="1" vertex="1">
          <mxGeometry x="-540" y="-300" width="160" height="190" as="geometry" />
        </mxCell>
        <mxCell id="78961159f06e98e8-57" value="&lt;u&gt;Event_ID&lt;/u&gt;: int (PK)" style="text;html=1;strokeColor=none;fillColor=none;align=left;verticalAlign=top;spacingLeft=4;spacingRight=4;whiteSpace=wrap;overflow=hidden;rotatable=0;points=[[0,0.5],[1,0.5]];portConstraint=eastwest;fontSize=14;" parent="78961159f06e98e8-56" vertex="1">
          <mxGeometry y="26" width="160" height="26" as="geometry" />
        </mxCell>
        <mxCell id="78961159f06e98e8-58" value="&lt;span style=&quot;font-size: 14px; text-align: center;&quot;&gt;Name :&amp;nbsp;&lt;/span&gt;varchar" style="text;html=1;strokeColor=none;fillColor=none;align=left;verticalAlign=top;spacingLeft=4;spacingRight=4;whiteSpace=wrap;overflow=hidden;rotatable=0;points=[[0,0.5],[1,0.5]];portConstraint=eastwest;fontSize=14;" parent="78961159f06e98e8-56" vertex="1">
          <mxGeometry y="52" width="160" height="26" as="geometry" />
        </mxCell>
        <mxCell id="78961159f06e98e8-59" value="&lt;font style=&quot;font-size: 14px;&quot;&gt;&lt;span style=&quot;text-align: center;&quot;&gt;Location :&lt;/span&gt;&amp;nbsp;&lt;/font&gt;varchar" style="text;html=1;strokeColor=none;fillColor=none;align=left;verticalAlign=top;spacingLeft=4;spacingRight=4;whiteSpace=wrap;overflow=hidden;rotatable=0;points=[[0,0.5],[1,0.5]];portConstraint=eastwest;fontSize=14;" parent="78961159f06e98e8-56" vertex="1">
          <mxGeometry y="78" width="160" height="26" as="geometry" />
        </mxCell>
        <mxCell id="78961159f06e98e8-60" value="&lt;span style=&quot;font-size: 14px; text-align: center;&quot;&gt;Description :&lt;/span&gt;&amp;nbsp;varchar" style="text;html=1;strokeColor=none;fillColor=none;align=left;verticalAlign=top;spacingLeft=4;spacingRight=4;whiteSpace=wrap;overflow=hidden;rotatable=0;points=[[0,0.5],[1,0.5]];portConstraint=eastwest;fontSize=14;" parent="78961159f06e98e8-56" vertex="1">
          <mxGeometry y="104" width="160" height="30" as="geometry" />
        </mxCell>
        <mxCell id="78961159f06e98e8-61" value="&lt;span style=&quot;font-size: 14px; text-align: center;&quot;&gt;Start_date&amp;nbsp;&lt;/span&gt;: date" style="text;html=1;strokeColor=none;fillColor=none;align=left;verticalAlign=top;spacingLeft=4;spacingRight=4;whiteSpace=wrap;overflow=hidden;rotatable=0;points=[[0,0.5],[1,0.5]];portConstraint=eastwest;fontSize=14;" parent="78961159f06e98e8-56" vertex="1">
          <mxGeometry y="134" width="160" height="26" as="geometry" />
        </mxCell>
        <mxCell id="78961159f06e98e8-62" value="&lt;span style=&quot;font-size: 14px; text-align: center;&quot;&gt;End_date&amp;nbsp;&lt;/span&gt;: date" style="text;html=1;strokeColor=none;fillColor=none;align=left;verticalAlign=top;spacingLeft=4;spacingRight=4;whiteSpace=wrap;overflow=hidden;rotatable=0;points=[[0,0.5],[1,0.5]];portConstraint=eastwest;fontSize=14;" parent="78961159f06e98e8-56" vertex="1">
          <mxGeometry y="160" width="160" height="26" as="geometry" />
        </mxCell>
        <mxCell id="78961159f06e98e8-69" value="Room" style="swimlane;html=1;fontStyle=1;align=center;verticalAlign=top;childLayout=stackLayout;horizontal=1;startSize=26;horizontalStack=0;resizeParent=1;resizeLast=0;collapsible=1;marginBottom=0;swimlaneFillColor=#ffffff;rounded=0;shadow=0;comic=0;labelBackgroundColor=none;strokeWidth=1;fillColor=#eeeeee;fontFamily=Verdana;fontSize=14;strokeColor=#36393d;" parent="1" vertex="1">
          <mxGeometry x="-290" y="100" width="160" height="200" as="geometry" />
        </mxCell>
        <mxCell id="78961159f06e98e8-70" value="&lt;span style=&quot;font-size: 14px; text-align: center;&quot;&gt;&lt;u&gt;Room_ID&lt;/u&gt;&lt;/span&gt;: int (PK)" style="text;html=1;strokeColor=none;fillColor=none;align=left;verticalAlign=top;spacingLeft=4;spacingRight=4;whiteSpace=wrap;overflow=hidden;rotatable=0;points=[[0,0.5],[1,0.5]];portConstraint=eastwest;fontSize=14;" parent="78961159f06e98e8-69" vertex="1">
          <mxGeometry y="26" width="160" height="26" as="geometry" />
        </mxCell>
        <mxCell id="78961159f06e98e8-71" value="&lt;span style=&quot;font-size: 14px; text-align: center;&quot;&gt;Max_Occupancy&lt;/span&gt;: int" style="text;html=1;strokeColor=none;fillColor=none;align=left;verticalAlign=top;spacingLeft=4;spacingRight=4;whiteSpace=wrap;overflow=hidden;rotatable=0;points=[[0,0.5],[1,0.5]];portConstraint=eastwest;fontSize=14;" parent="78961159f06e98e8-69" vertex="1">
          <mxGeometry y="52" width="160" height="26" as="geometry" />
        </mxCell>
        <mxCell id="78961159f06e98e8-72" value="&lt;span style=&quot;font-size: 14px; text-align: center;&quot;&gt;Price_per_Night&amp;nbsp;&lt;/span&gt;: float" style="text;html=1;strokeColor=none;fillColor=none;align=left;verticalAlign=top;spacingLeft=4;spacingRight=4;whiteSpace=wrap;overflow=hidden;rotatable=0;points=[[0,0.5],[1,0.5]];portConstraint=eastwest;fontSize=14;" parent="78961159f06e98e8-69" vertex="1">
          <mxGeometry y="78" width="160" height="26" as="geometry" />
        </mxCell>
        <mxCell id="78961159f06e98e8-74" value="&lt;span style=&quot;font-size: 14px; text-align: center;&quot;&gt;Availability :&lt;/span&gt;&amp;nbsp;varchar" style="text;html=1;strokeColor=none;fillColor=none;align=left;verticalAlign=top;spacingLeft=4;spacingRight=4;whiteSpace=wrap;overflow=hidden;rotatable=0;points=[[0,0.5],[1,0.5]];portConstraint=eastwest;fontSize=14;" parent="78961159f06e98e8-69" vertex="1">
          <mxGeometry y="104" width="160" height="26" as="geometry" />
        </mxCell>
        <mxCell id="78961159f06e98e8-75" value="&lt;span style=&quot;font-size: 14px; text-align: center;&quot;&gt;Description&lt;/span&gt;: varchar" style="text;html=1;strokeColor=none;fillColor=none;align=left;verticalAlign=top;spacingLeft=4;spacingRight=4;whiteSpace=wrap;overflow=hidden;rotatable=0;points=[[0,0.5],[1,0.5]];portConstraint=eastwest;fontSize=14;" parent="78961159f06e98e8-69" vertex="1">
          <mxGeometry y="130" width="160" height="26" as="geometry" />
        </mxCell>
        <mxCell id="78961159f06e98e8-76" value="&lt;span style=&quot;font-size: 14px; text-align: center;&quot;&gt;Type&amp;nbsp;&lt;/span&gt;: varchar" style="text;html=1;strokeColor=none;fillColor=none;align=left;verticalAlign=top;spacingLeft=4;spacingRight=4;whiteSpace=wrap;overflow=hidden;rotatable=0;points=[[0,0.5],[1,0.5]];portConstraint=eastwest;fontSize=14;" parent="78961159f06e98e8-69" vertex="1">
          <mxGeometry y="156" width="160" height="26" as="geometry" />
        </mxCell>
        <mxCell id="xuSP38dfbPnXMIdWxUSy-62" style="edgeStyle=orthogonalEdgeStyle;rounded=0;orthogonalLoop=1;jettySize=auto;html=1;exitX=0.25;exitY=0;exitDx=0;exitDy=0;entryX=0.75;entryY=1;entryDx=0;entryDy=0;" parent="1" source="78961159f06e98e8-82" target="78961159f06e98e8-17" edge="1">
          <mxGeometry relative="1" as="geometry" />
        </mxCell>
        <mxCell id="78961159f06e98e8-82" value="Booking" style="swimlane;html=1;fontStyle=1;align=center;verticalAlign=top;childLayout=stackLayout;horizontal=1;startSize=26;horizontalStack=0;resizeParent=1;resizeLast=0;collapsible=1;marginBottom=0;swimlaneFillColor=#ffffff;rounded=0;shadow=0;comic=0;labelBackgroundColor=none;strokeWidth=1;fillColor=#eeeeee;fontFamily=Verdana;fontSize=14;strokeColor=#36393d;" parent="1" vertex="1">
          <mxGeometry x="410" y="300" width="210" height="246" as="geometry" />
        </mxCell>
        <mxCell id="78961159f06e98e8-83" value="&lt;span style=&quot;font-size: 14px; text-align: center; text-decoration-line: underline;&quot;&gt;Booking_ID&amp;nbsp;&lt;/span&gt;: int&amp;nbsp;&lt;span style=&quot;text-align: center;&quot;&gt;(PK)&lt;/span&gt;" style="text;html=1;strokeColor=none;fillColor=none;align=left;verticalAlign=top;spacingLeft=4;spacingRight=4;whiteSpace=wrap;overflow=hidden;rotatable=0;points=[[0,0.5],[1,0.5]];portConstraint=eastwest;fontSize=14;" parent="78961159f06e98e8-82" vertex="1">
          <mxGeometry y="26" width="210" height="26" as="geometry" />
        </mxCell>
        <mxCell id="78961159f06e98e8-84" value="&lt;span style=&quot;font-size: 14px; text-align: center;&quot;&gt;Status&amp;nbsp;&lt;/span&gt;: varchar" style="text;html=1;strokeColor=none;fillColor=none;align=left;verticalAlign=top;spacingLeft=4;spacingRight=4;whiteSpace=wrap;overflow=hidden;rotatable=0;points=[[0,0.5],[1,0.5]];portConstraint=eastwest;fontSize=14;" parent="78961159f06e98e8-82" vertex="1">
          <mxGeometry y="52" width="210" height="26" as="geometry" />
        </mxCell>
        <mxCell id="78961159f06e98e8-85" value="&lt;span style=&quot;font-size: 14px; text-align: center;&quot;&gt;Total_Price&amp;nbsp;&lt;/span&gt;: float" style="text;html=1;strokeColor=none;fillColor=none;align=left;verticalAlign=top;spacingLeft=4;spacingRight=4;whiteSpace=wrap;overflow=hidden;rotatable=0;points=[[0,0.5],[1,0.5]];portConstraint=eastwest;fontSize=14;" parent="78961159f06e98e8-82" vertex="1">
          <mxGeometry y="78" width="210" height="26" as="geometry" />
        </mxCell>
        <mxCell id="78961159f06e98e8-86" value="&lt;span style=&quot;font-size: 14px; text-align: center;&quot;&gt;CheckIN_Date&amp;nbsp;&lt;/span&gt;: date" style="text;html=1;strokeColor=none;fillColor=none;align=left;verticalAlign=top;spacingLeft=4;spacingRight=4;whiteSpace=wrap;overflow=hidden;rotatable=0;points=[[0,0.5],[1,0.5]];portConstraint=eastwest;fontSize=14;" parent="78961159f06e98e8-82" vertex="1">
          <mxGeometry y="104" width="210" height="26" as="geometry" />
        </mxCell>
        <mxCell id="78961159f06e98e8-87" value="&lt;span style=&quot;font-size: 14px; text-align: center;&quot;&gt;CheckOUT_Date&lt;/span&gt;&amp;nbsp;: date&lt;div&gt;&lt;br&gt;&lt;div&gt;&lt;span style=&quot;color: rgba(0, 0, 0, 0); font-family: monospace; font-size: 0px; text-wrap: nowrap;&quot;&gt;%3CmxGraphModel%3E%3Croot%3E%3CmxCell%20id%3D%220%22%2F%3E%3CmxCell%20id%3D%221%22%20parent%3D%220%22%2F%3E%3CmxCell%20id%3D%222%22%20value%3D%22%26lt%3Bspan%20style%3D%26quot%3Btext-align%3A%20center%3B%20font-size%3A%2014px%3B%26quot%3B%26gt%3BRoom%20_ID%26lt%3B%2Fspan%26gt%3B%26lt%3Bu%26gt%3B%3A%26lt%3B%2Fu%26gt%3B%20int%26amp%3Bnbsp%3B%26lt%3Bspan%20style%3D%26quot%3Btext-align%3A%20center%3B%26quot%3B%26gt%3B(FK)%26lt%3B%2Fspan%26gt%3B%22%20style%3D%22text%3Bhtml%3D1%3BstrokeColor%3Dnone%3BfillColor%3Dnone%3Balign%3Dleft%3BverticalAlign%3Dtop%3BspacingLeft%3D4%3BspacingRight%3D4%3BwhiteSpace%3Dwrap%3Boverflow%3Dhidden%3Brotatable%3D0%3Bpoints%3D%5B%5B0%2C0.5%5D%2C%5B1%2C0.5%5D%5D%3BportConstraint%3Deastwest%3BfontSize%3D14%3B%22%20vertex%3D%221%22%20parent%3D%221%22%3E%3CmxGeometry%20x%3D%22120%22%20y%3D%22246%22%20width%3D%22160%22%20height%3D%2226%22%20as%3D%22geometry%22%2F%3E%3C%2FmxCell%3E%3C%2Froot%3E%3C%2FmxGraphModel%3Esss&lt;/span&gt;&lt;span style=&quot;background-color: initial; text-align: center;&quot;&gt;User _ID&lt;/span&gt;&lt;u style=&quot;background-color: initial;&quot;&gt;:&lt;/u&gt;&lt;span style=&quot;background-color: initial;&quot;&gt;&amp;nbsp;int&amp;nbsp;&lt;/span&gt;&lt;span style=&quot;background-color: initial; text-align: center;&quot;&gt;(FK)&lt;/span&gt;&lt;/div&gt;&lt;div&gt;&lt;div&gt;&lt;br&gt;&lt;/div&gt;&lt;/div&gt;&lt;/div&gt;" style="text;html=1;strokeColor=none;fillColor=none;align=left;verticalAlign=top;spacingLeft=4;spacingRight=4;whiteSpace=wrap;overflow=hidden;rotatable=0;points=[[0,0.5],[1,0.5]];portConstraint=eastwest;fontSize=14;" parent="78961159f06e98e8-82" vertex="1">
          <mxGeometry y="130" width="210" height="20" as="geometry" />
        </mxCell>
        <mxCell id="xuSP38dfbPnXMIdWxUSy-41" value="&lt;div style=&quot;text-align: center;&quot;&gt;&lt;br&gt;&lt;/div&gt;&lt;div style=&quot;text-align: center;&quot;&gt;User_Id :int (FK)&lt;/div&gt;&lt;div style=&quot;text-align: center;&quot;&gt;&lt;br&gt;&lt;/div&gt;&lt;div style=&quot;text-align: center;&quot;&gt;&lt;br&gt;&lt;/div&gt;" style="text;html=1;strokeColor=none;fillColor=none;align=left;verticalAlign=top;spacingLeft=4;spacingRight=4;whiteSpace=wrap;overflow=hidden;rotatable=0;points=[[0,0.5],[1,0.5]];portConstraint=eastwest;fontSize=14;" parent="78961159f06e98e8-82" vertex="1">
          <mxGeometry y="150" width="210" height="50" as="geometry" />
        </mxCell>
        <mxCell id="xuSP38dfbPnXMIdWxUSy-43" value="&lt;span style=&quot;text-align: center; font-size: 14px;&quot;&gt;Hotel_ID&lt;/span&gt;&lt;u&gt;:&lt;/u&gt; int&amp;nbsp;&lt;span style=&quot;text-align: center;&quot;&gt;(FK)&lt;/span&gt;" style="text;html=1;strokeColor=none;fillColor=none;align=left;verticalAlign=top;spacingLeft=4;spacingRight=4;whiteSpace=wrap;overflow=hidden;rotatable=0;points=[[0,0.5],[1,0.5]];portConstraint=eastwest;fontSize=14;" parent="78961159f06e98e8-82" vertex="1">
          <mxGeometry y="200" width="210" height="26" as="geometry" />
        </mxCell>
        <mxCell id="78961159f06e98e8-95" value="&lt;span style=&quot;font-family: Helvetica; text-wrap: wrap;&quot;&gt;&lt;font style=&quot;font-size: 14px;&quot;&gt;Invoice&lt;/font&gt;&lt;/span&gt;" style="swimlane;html=1;fontStyle=1;align=center;verticalAlign=top;childLayout=stackLayout;horizontal=1;startSize=26;horizontalStack=0;resizeParent=1;resizeLast=0;collapsible=1;marginBottom=0;swimlaneFillColor=#ffffff;rounded=0;shadow=0;comic=0;labelBackgroundColor=none;strokeWidth=1;fillColor=#eeeeee;fontFamily=Verdana;fontSize=14;strokeColor=#36393d;" parent="1" vertex="1">
          <mxGeometry x="970" y="150" width="160" height="168" as="geometry" />
        </mxCell>
        <mxCell id="78961159f06e98e8-96" value="&lt;u style=&quot;font-size: 14px; text-align: center;&quot;&gt;Invoice_ID&amp;nbsp;&lt;/u&gt;: int (PK)" style="text;html=1;strokeColor=none;fillColor=none;align=left;verticalAlign=top;spacingLeft=4;spacingRight=4;whiteSpace=wrap;overflow=hidden;rotatable=0;points=[[0,0.5],[1,0.5]];portConstraint=eastwest;fontSize=14;" parent="78961159f06e98e8-95" vertex="1">
          <mxGeometry y="26" width="160" height="26" as="geometry" />
        </mxCell>
        <mxCell id="78961159f06e98e8-97" value="&lt;span style=&quot;font-size: 14px; text-align: center;&quot;&gt;Amount&lt;/span&gt;&amp;nbsp;: float" style="text;html=1;strokeColor=none;fillColor=none;align=left;verticalAlign=top;spacingLeft=4;spacingRight=4;whiteSpace=wrap;overflow=hidden;rotatable=0;points=[[0,0.5],[1,0.5]];portConstraint=eastwest;fontSize=14;" parent="78961159f06e98e8-95" vertex="1">
          <mxGeometry y="52" width="160" height="26" as="geometry" />
        </mxCell>
        <mxCell id="78961159f06e98e8-98" value="&lt;span style=&quot;font-size: 14px; text-align: center;&quot;&gt;Issue_date&amp;nbsp;&lt;/span&gt;: date" style="text;html=1;strokeColor=none;fillColor=none;align=left;verticalAlign=top;spacingLeft=4;spacingRight=4;whiteSpace=wrap;overflow=hidden;rotatable=0;points=[[0,0.5],[1,0.5]];portConstraint=eastwest;fontSize=14;" parent="78961159f06e98e8-95" vertex="1">
          <mxGeometry y="78" width="160" height="26" as="geometry" />
        </mxCell>
        <mxCell id="78961159f06e98e8-102" value="&lt;span style=&quot;font-size: 14px; text-align: center;&quot;&gt;Due_date&amp;nbsp;&lt;/span&gt;: date" style="text;html=1;strokeColor=none;fillColor=none;align=left;verticalAlign=top;spacingLeft=4;spacingRight=4;whiteSpace=wrap;overflow=hidden;rotatable=0;points=[[0,0.5],[1,0.5]];portConstraint=eastwest;fontSize=14;" parent="78961159f06e98e8-95" vertex="1">
          <mxGeometry y="104" width="160" height="26" as="geometry" />
        </mxCell>
        <mxCell id="78961159f06e98e8-104" value="&lt;span style=&quot;font-size: 14px; text-align: center;&quot;&gt;Status&amp;nbsp;&lt;/span&gt;: varchar" style="text;html=1;strokeColor=none;fillColor=none;align=left;verticalAlign=top;spacingLeft=4;spacingRight=4;whiteSpace=wrap;overflow=hidden;rotatable=0;points=[[0,0.5],[1,0.5]];portConstraint=eastwest;fontSize=14;" parent="78961159f06e98e8-95" vertex="1">
          <mxGeometry y="130" width="160" height="26" as="geometry" />
        </mxCell>
        <mxCell id="78961159f06e98e8-108" value="Amenity" style="swimlane;html=1;fontStyle=1;align=center;verticalAlign=top;childLayout=stackLayout;horizontal=1;startSize=26;horizontalStack=0;resizeParent=1;resizeLast=0;collapsible=1;marginBottom=0;swimlaneFillColor=#ffffff;rounded=0;shadow=0;comic=0;labelBackgroundColor=none;strokeWidth=1;fillColor=#eeeeee;fontFamily=Verdana;fontSize=14;strokeColor=#36393d;" parent="1" vertex="1">
          <mxGeometry x="360" y="-550" width="160" height="110" as="geometry" />
        </mxCell>
        <mxCell id="78961159f06e98e8-109" value="&lt;span style=&quot;font-size: 14px; text-align: center;&quot;&gt;&lt;u&gt;Amenity_ID&amp;nbsp;&lt;/u&gt;:&amp;nbsp;&lt;/span&gt;int (PK)" style="text;html=1;strokeColor=none;fillColor=none;align=left;verticalAlign=top;spacingLeft=4;spacingRight=4;whiteSpace=wrap;overflow=hidden;rotatable=0;points=[[0,0.5],[1,0.5]];portConstraint=eastwest;fontSize=14;" parent="78961159f06e98e8-108" vertex="1">
          <mxGeometry y="26" width="160" height="26" as="geometry" />
        </mxCell>
        <mxCell id="78961159f06e98e8-110" value="&lt;span style=&quot;font-size: 14px; text-align: center;&quot;&gt;Name&amp;nbsp;&lt;/span&gt;: varchar" style="text;html=1;strokeColor=none;fillColor=none;align=left;verticalAlign=top;spacingLeft=4;spacingRight=4;whiteSpace=wrap;overflow=hidden;rotatable=0;points=[[0,0.5],[1,0.5]];portConstraint=eastwest;fontSize=14;" parent="78961159f06e98e8-108" vertex="1">
          <mxGeometry y="52" width="160" height="26" as="geometry" />
        </mxCell>
        <mxCell id="78961159f06e98e8-117" value="&lt;span style=&quot;font-size: 14px; text-align: center;&quot;&gt;Description :&lt;/span&gt;&amp;nbsp;varchar" style="text;html=1;strokeColor=none;fillColor=none;align=left;verticalAlign=top;spacingLeft=4;spacingRight=4;whiteSpace=wrap;overflow=hidden;rotatable=0;points=[[0,0.5],[1,0.5]];portConstraint=eastwest;fontSize=14;" parent="78961159f06e98e8-108" vertex="1">
          <mxGeometry y="78" width="160" height="24" as="geometry" />
        </mxCell>
        <mxCell id="AnVdaM48TsKzXqkaSUUS-20" value="Hotel_Amenity" style="swimlane;html=1;fontStyle=1;align=center;verticalAlign=top;childLayout=stackLayout;horizontal=1;startSize=26;horizontalStack=0;resizeParent=1;resizeLast=0;collapsible=1;marginBottom=0;swimlaneFillColor=#ffffff;rounded=0;shadow=0;comic=0;labelBackgroundColor=none;strokeWidth=1;fillColor=#eeeeee;fontFamily=Verdana;fontSize=14;strokeColor=#36393d;" parent="1" vertex="1">
          <mxGeometry x="670" y="-500" width="160" height="80" as="geometry" />
        </mxCell>
        <mxCell id="AnVdaM48TsKzXqkaSUUS-21" value="&lt;span style=&quot;font-size: 14px;&quot;&gt;&lt;span style=&quot;text-align: center; font-size: 14px;&quot;&gt;&lt;font style=&quot;font-size: 14px;&quot;&gt;&lt;u&gt;Amenity_ID&lt;/u&gt; :&amp;nbsp;&lt;/font&gt;&lt;/span&gt;&lt;/span&gt;int&amp;nbsp;&lt;span style=&quot;text-align: center;&quot;&gt;(FK)&lt;/span&gt;" style="text;html=1;strokeColor=none;fillColor=none;align=left;verticalAlign=top;spacingLeft=4;spacingRight=4;whiteSpace=wrap;overflow=hidden;rotatable=0;points=[[0,0.5],[1,0.5]];portConstraint=eastwest;fontSize=14;" parent="AnVdaM48TsKzXqkaSUUS-20" vertex="1">
          <mxGeometry y="26" width="160" height="26" as="geometry" />
        </mxCell>
        <mxCell id="AnVdaM48TsKzXqkaSUUS-22" value="&lt;u&gt;&lt;span style=&quot;text-align: center; font-size: 14px;&quot;&gt;Hotel _ID&lt;/span&gt;:&lt;/u&gt;&amp;nbsp;int&amp;nbsp;&lt;span style=&quot;text-align: center;&quot;&gt;(FK)&lt;/span&gt;" style="text;html=1;strokeColor=none;fillColor=none;align=left;verticalAlign=top;spacingLeft=4;spacingRight=4;whiteSpace=wrap;overflow=hidden;rotatable=0;points=[[0,0.5],[1,0.5]];portConstraint=eastwest;fontSize=14;" parent="AnVdaM48TsKzXqkaSUUS-20" vertex="1">
          <mxGeometry y="52" width="160" height="26" as="geometry" />
        </mxCell>
        <mxCell id="AnVdaM48TsKzXqkaSUUS-26" style="edgeStyle=orthogonalEdgeStyle;rounded=0;orthogonalLoop=1;jettySize=auto;html=1;exitX=0;exitY=0.5;exitDx=0;exitDy=0;" parent="1" source="AnVdaM48TsKzXqkaSUUS-21" target="78961159f06e98e8-109" edge="1">
          <mxGeometry relative="1" as="geometry" />
        </mxCell>
        <mxCell id="AnVdaM48TsKzXqkaSUUS-27" style="edgeStyle=orthogonalEdgeStyle;rounded=0;orthogonalLoop=1;jettySize=auto;html=1;exitX=0;exitY=0.5;exitDx=0;exitDy=0;" parent="1" source="AnVdaM48TsKzXqkaSUUS-22" target="78961159f06e98e8-21" edge="1">
          <mxGeometry relative="1" as="geometry" />
        </mxCell>
        <mxCell id="AnVdaM48TsKzXqkaSUUS-28" value="Room_Amenity" style="swimlane;html=1;fontStyle=1;align=center;verticalAlign=top;childLayout=stackLayout;horizontal=1;startSize=26;horizontalStack=0;resizeParent=1;resizeLast=0;collapsible=1;marginBottom=0;swimlaneFillColor=#ffffff;rounded=0;shadow=0;comic=0;labelBackgroundColor=none;strokeWidth=1;fillColor=#eeeeee;fontFamily=Verdana;fontSize=14;strokeColor=#36393d;" parent="1" vertex="1">
          <mxGeometry x="120" y="-505" width="160" height="80" as="geometry" />
        </mxCell>
        <mxCell id="AnVdaM48TsKzXqkaSUUS-30" value="&lt;span style=&quot;text-align: center; font-size: 14px;&quot;&gt;&lt;u&gt;Room _ID&lt;/u&gt;&lt;/span&gt;: int&amp;nbsp;&lt;span style=&quot;text-align: center;&quot;&gt;(FK)&lt;/span&gt;" style="text;html=1;strokeColor=none;fillColor=none;align=left;verticalAlign=top;spacingLeft=4;spacingRight=4;whiteSpace=wrap;overflow=hidden;rotatable=0;points=[[0,0.5],[1,0.5]];portConstraint=eastwest;fontSize=14;" parent="AnVdaM48TsKzXqkaSUUS-28" vertex="1">
          <mxGeometry y="26" width="160" height="26" as="geometry" />
        </mxCell>
        <mxCell id="AnVdaM48TsKzXqkaSUUS-29" value="&lt;span style=&quot;font-size: 14px;&quot;&gt;&lt;span style=&quot;text-align: center; font-size: 14px;&quot;&gt;&lt;font style=&quot;font-size: 14px;&quot;&gt;&lt;u&gt;Amenity_ID &lt;/u&gt;: int (FK)&lt;/font&gt;&lt;/span&gt;&lt;/span&gt;" style="text;html=1;strokeColor=none;fillColor=none;align=left;verticalAlign=top;spacingLeft=4;spacingRight=4;whiteSpace=wrap;overflow=hidden;rotatable=0;points=[[0,0.5],[1,0.5]];portConstraint=eastwest;fontSize=14;" parent="AnVdaM48TsKzXqkaSUUS-28" vertex="1">
          <mxGeometry y="52" width="160" height="26" as="geometry" />
        </mxCell>
        <mxCell id="AnVdaM48TsKzXqkaSUUS-37" style="edgeStyle=orthogonalEdgeStyle;rounded=0;orthogonalLoop=1;jettySize=auto;html=1;entryX=0;entryY=0.215;entryDx=0;entryDy=0;entryPerimeter=0;" parent="1" source="AnVdaM48TsKzXqkaSUUS-29" target="78961159f06e98e8-109" edge="1">
          <mxGeometry relative="1" as="geometry" />
        </mxCell>
        <mxCell id="AnVdaM48TsKzXqkaSUUS-38" style="edgeStyle=orthogonalEdgeStyle;rounded=0;orthogonalLoop=1;jettySize=auto;html=1;exitX=0;exitY=0.5;exitDx=0;exitDy=0;" parent="1" source="AnVdaM48TsKzXqkaSUUS-30" target="78961159f06e98e8-70" edge="1">
          <mxGeometry relative="1" as="geometry" />
        </mxCell>
        <mxCell id="AnVdaM48TsKzXqkaSUUS-52" value="Hotel_Event" style="swimlane;html=1;fontStyle=1;align=center;verticalAlign=top;childLayout=stackLayout;horizontal=1;startSize=26;horizontalStack=0;resizeParent=1;resizeLast=0;collapsible=1;marginBottom=0;swimlaneFillColor=#ffffff;rounded=0;shadow=0;comic=0;labelBackgroundColor=none;strokeWidth=1;fillColor=#eeeeee;fontFamily=Verdana;fontSize=14;strokeColor=#36393d;" parent="1" vertex="1">
          <mxGeometry x="-330" y="-290" width="160" height="90" as="geometry" />
        </mxCell>
        <mxCell id="AnVdaM48TsKzXqkaSUUS-53" value="&lt;u&gt;Event_ID:&lt;/u&gt;&amp;nbsp;int&amp;nbsp;&amp;nbsp;(FK)" style="text;html=1;strokeColor=none;fillColor=none;align=left;verticalAlign=top;spacingLeft=4;spacingRight=4;whiteSpace=wrap;overflow=hidden;rotatable=0;points=[[0,0.5],[1,0.5]];portConstraint=eastwest;fontSize=14;" parent="AnVdaM48TsKzXqkaSUUS-52" vertex="1">
          <mxGeometry y="26" width="160" height="24" as="geometry" />
        </mxCell>
        <mxCell id="AnVdaM48TsKzXqkaSUUS-56" value="&lt;span style=&quot;text-align: center; font-size: 14px;&quot;&gt;&lt;u&gt;Hotel _ID&lt;/u&gt;&lt;/span&gt;: int&amp;nbsp;&amp;nbsp;(FK)" style="text;html=1;strokeColor=none;fillColor=none;align=left;verticalAlign=top;spacingLeft=4;spacingRight=4;whiteSpace=wrap;overflow=hidden;rotatable=0;points=[[0,0.5],[1,0.5]];portConstraint=eastwest;fontSize=14;" parent="AnVdaM48TsKzXqkaSUUS-52" vertex="1">
          <mxGeometry y="50" width="160" height="26" as="geometry" />
        </mxCell>
        <mxCell id="AnVdaM48TsKzXqkaSUUS-58" style="edgeStyle=orthogonalEdgeStyle;rounded=0;orthogonalLoop=1;jettySize=auto;html=1;entryX=1;entryY=0.5;entryDx=0;entryDy=0;" parent="1" source="AnVdaM48TsKzXqkaSUUS-53" target="78961159f06e98e8-57" edge="1">
          <mxGeometry relative="1" as="geometry" />
        </mxCell>
        <mxCell id="AnVdaM48TsKzXqkaSUUS-71" value="Hotel_&lt;span style=&quot;font-family: Helvetica; text-wrap: wrap;&quot;&gt;Transport&lt;/span&gt;" style="swimlane;html=1;fontStyle=1;align=center;verticalAlign=top;childLayout=stackLayout;horizontal=1;startSize=26;horizontalStack=0;resizeParent=1;resizeLast=0;collapsible=1;marginBottom=0;swimlaneFillColor=#ffffff;rounded=0;shadow=0;comic=0;labelBackgroundColor=none;strokeWidth=1;fillColor=#eeeeee;fontFamily=Verdana;fontSize=14;strokeColor=#36393d;" parent="1" vertex="1">
          <mxGeometry x="-440" y="-70" width="160" height="90" as="geometry" />
        </mxCell>
        <mxCell id="AnVdaM48TsKzXqkaSUUS-72" value="&lt;span style=&quot;text-align: center;&quot;&gt;&lt;u&gt;Transport_ID&amp;nbsp;&lt;/u&gt;&lt;/span&gt;: int (FK)" style="text;html=1;strokeColor=none;fillColor=none;align=left;verticalAlign=top;spacingLeft=4;spacingRight=4;whiteSpace=wrap;overflow=hidden;rotatable=0;points=[[0,0.5],[1,0.5]];portConstraint=eastwest;fontSize=14;" parent="AnVdaM48TsKzXqkaSUUS-71" vertex="1">
          <mxGeometry y="26" width="160" height="26" as="geometry" />
        </mxCell>
        <mxCell id="AnVdaM48TsKzXqkaSUUS-73" value="&lt;span style=&quot;text-align: center; font-size: 14px;&quot;&gt;Hotel _ID&lt;/span&gt;: int (FK)" style="text;html=1;strokeColor=none;fillColor=none;align=left;verticalAlign=top;spacingLeft=4;spacingRight=4;whiteSpace=wrap;overflow=hidden;rotatable=0;points=[[0,0.5],[1,0.5]];portConstraint=eastwest;fontSize=14;" parent="AnVdaM48TsKzXqkaSUUS-71" vertex="1">
          <mxGeometry y="52" width="160" height="26" as="geometry" />
        </mxCell>
        <mxCell id="AnVdaM48TsKzXqkaSUUS-74" style="edgeStyle=orthogonalEdgeStyle;rounded=0;orthogonalLoop=1;jettySize=auto;html=1;" parent="1" source="AnVdaM48TsKzXqkaSUUS-72" target="78961159f06e98e8-31" edge="1">
          <mxGeometry relative="1" as="geometry" />
        </mxCell>
        <mxCell id="AnVdaM48TsKzXqkaSUUS-75" style="edgeStyle=orthogonalEdgeStyle;rounded=0;orthogonalLoop=1;jettySize=auto;html=1;" parent="1" source="AnVdaM48TsKzXqkaSUUS-73" target="78961159f06e98e8-21" edge="1">
          <mxGeometry relative="1" as="geometry" />
        </mxCell>
        <mxCell id="AnVdaM48TsKzXqkaSUUS-76" value="Hotel_Room" style="swimlane;html=1;fontStyle=1;align=center;verticalAlign=top;childLayout=stackLayout;horizontal=1;startSize=26;horizontalStack=0;resizeParent=1;resizeLast=0;collapsible=1;marginBottom=0;swimlaneFillColor=#ffffff;rounded=0;shadow=0;comic=0;labelBackgroundColor=none;strokeWidth=1;fillColor=#eeeeee;fontFamily=Verdana;fontSize=14;strokeColor=#36393d;" parent="1" vertex="1">
          <mxGeometry x="70" y="-20" width="160" height="80" as="geometry" />
        </mxCell>
        <mxCell id="AnVdaM48TsKzXqkaSUUS-78" value="&lt;u&gt;&lt;span style=&quot;text-align: center; font-size: 14px;&quot;&gt;Room _ID&lt;/span&gt;:&lt;/u&gt; int&amp;nbsp;&lt;span style=&quot;text-align: center;&quot;&gt;(FK)&lt;/span&gt;" style="text;html=1;strokeColor=none;fillColor=none;align=left;verticalAlign=top;spacingLeft=4;spacingRight=4;whiteSpace=wrap;overflow=hidden;rotatable=0;points=[[0,0.5],[1,0.5]];portConstraint=eastwest;fontSize=14;" parent="AnVdaM48TsKzXqkaSUUS-76" vertex="1">
          <mxGeometry y="26" width="160" height="26" as="geometry" />
        </mxCell>
        <mxCell id="AnVdaM48TsKzXqkaSUUS-77" value="&lt;div style=&quot;text-align: left;&quot;&gt;&lt;span style=&quot;background-color: initial; text-align: center;&quot;&gt;Hotel _ID&amp;nbsp;&lt;/span&gt;&lt;span style=&quot;background-color: initial;&quot;&gt;&lt;span style=&quot;text-align: center;&quot;&gt;:&amp;nbsp; int (FK)&lt;/span&gt;&lt;/span&gt;&lt;/div&gt;" style="text;html=1;strokeColor=none;fillColor=none;align=left;verticalAlign=top;spacingLeft=4;spacingRight=4;whiteSpace=wrap;overflow=hidden;rotatable=0;points=[[0,0.5],[1,0.5]];portConstraint=eastwest;fontSize=14;" parent="AnVdaM48TsKzXqkaSUUS-76" vertex="1">
          <mxGeometry y="52" width="160" height="26" as="geometry" />
        </mxCell>
        <mxCell id="AnVdaM48TsKzXqkaSUUS-81" style="edgeStyle=orthogonalEdgeStyle;rounded=0;orthogonalLoop=1;jettySize=auto;html=1;entryX=0.938;entryY=0.538;entryDx=0;entryDy=0;entryPerimeter=0;" parent="1" source="AnVdaM48TsKzXqkaSUUS-78" target="78961159f06e98e8-70" edge="1">
          <mxGeometry relative="1" as="geometry" />
        </mxCell>
        <mxCell id="AnVdaM48TsKzXqkaSUUS-82" style="edgeStyle=orthogonalEdgeStyle;rounded=0;orthogonalLoop=1;jettySize=auto;html=1;" parent="1" source="AnVdaM48TsKzXqkaSUUS-77" target="78961159f06e98e8-21" edge="1">
          <mxGeometry relative="1" as="geometry" />
        </mxCell>
        <mxCell id="AnVdaM48TsKzXqkaSUUS-84" style="edgeStyle=orthogonalEdgeStyle;rounded=0;orthogonalLoop=1;jettySize=auto;html=1;" parent="1" source="AnVdaM48TsKzXqkaSUUS-56" target="78961159f06e98e8-21" edge="1">
          <mxGeometry relative="1" as="geometry" />
        </mxCell>
        <mxCell id="AnVdaM48TsKzXqkaSUUS-108" style="edgeStyle=orthogonalEdgeStyle;rounded=0;orthogonalLoop=1;jettySize=auto;html=1;entryX=0;entryY=0.5;entryDx=0;entryDy=0;" parent="1" source="AnVdaM48TsKzXqkaSUUS-102" target="78961159f06e98e8-44" edge="1">
          <mxGeometry relative="1" as="geometry">
            <Array as="points">
              <mxPoint x="660" y="100" />
              <mxPoint x="660" y="-171" />
            </Array>
          </mxGeometry>
        </mxCell>
        <mxCell id="AnVdaM48TsKzXqkaSUUS-102" value="Booking_Payment" style="swimlane;html=1;fontStyle=1;align=center;verticalAlign=top;childLayout=stackLayout;horizontal=1;startSize=26;horizontalStack=0;resizeParent=1;resizeLast=0;collapsible=1;marginBottom=0;swimlaneFillColor=#ffffff;rounded=0;shadow=0;comic=0;labelBackgroundColor=none;strokeWidth=1;fillColor=#eeeeee;fontFamily=Verdana;fontSize=14;strokeColor=#36393d;" parent="1" vertex="1">
          <mxGeometry x="710" y="60" width="160" height="80" as="geometry" />
        </mxCell>
        <mxCell id="AnVdaM48TsKzXqkaSUUS-104" value="&lt;div style=&quot;text-align: left;&quot;&gt;&lt;span style=&quot;text-align: center; text-decoration-line: underline; background-color: initial;&quot;&gt;Payment_ID&lt;/span&gt;&lt;span style=&quot;background-color: initial; text-align: center;&quot;&gt;&amp;nbsp;&lt;/span&gt;&lt;span style=&quot;background-color: initial;&quot;&gt;&lt;span style=&quot;text-align: center;&quot;&gt;: int (FK)&lt;/span&gt;&lt;/span&gt;&lt;/div&gt;" style="text;html=1;strokeColor=none;fillColor=none;align=left;verticalAlign=top;spacingLeft=4;spacingRight=4;whiteSpace=wrap;overflow=hidden;rotatable=0;points=[[0,0.5],[1,0.5]];portConstraint=eastwest;fontSize=14;" parent="AnVdaM48TsKzXqkaSUUS-102" vertex="1">
          <mxGeometry y="26" width="160" height="26" as="geometry" />
        </mxCell>
        <mxCell id="AnVdaM48TsKzXqkaSUUS-103" value="&lt;span style=&quot;text-align: center;&quot;&gt;Booking_ID&lt;/span&gt;&lt;span style=&quot;text-decoration-line: underline; text-align: center;&quot;&gt;&amp;nbsp;&lt;/span&gt;: int&amp;nbsp;&lt;span style=&quot;text-align: center;&quot;&gt;(FK)&lt;/span&gt;" style="text;html=1;strokeColor=none;fillColor=none;align=left;verticalAlign=top;spacingLeft=4;spacingRight=4;whiteSpace=wrap;overflow=hidden;rotatable=0;points=[[0,0.5],[1,0.5]];portConstraint=eastwest;fontSize=14;" parent="AnVdaM48TsKzXqkaSUUS-102" vertex="1">
          <mxGeometry y="52" width="160" height="26" as="geometry" />
        </mxCell>
        <mxCell id="AnVdaM48TsKzXqkaSUUS-109" style="edgeStyle=orthogonalEdgeStyle;rounded=0;orthogonalLoop=1;jettySize=auto;html=1;entryX=1;entryY=0.5;entryDx=0;entryDy=0;" parent="1" source="AnVdaM48TsKzXqkaSUUS-103" target="78961159f06e98e8-83" edge="1">
          <mxGeometry relative="1" as="geometry" />
        </mxCell>
        <mxCell id="AnVdaM48TsKzXqkaSUUS-132" value="Booking_&lt;span style=&quot;font-family: Helvetica; text-wrap: wrap;&quot;&gt;Invoice&lt;/span&gt;" style="swimlane;html=1;fontStyle=1;align=center;verticalAlign=top;childLayout=stackLayout;horizontal=1;startSize=26;horizontalStack=0;resizeParent=1;resizeLast=0;collapsible=1;marginBottom=0;swimlaneFillColor=#ffffff;rounded=0;shadow=0;comic=0;labelBackgroundColor=none;strokeWidth=1;fillColor=#eeeeee;fontFamily=Verdana;fontSize=14;strokeColor=#36393d;" parent="1" vertex="1">
          <mxGeometry x="740" y="220" width="160" height="80" as="geometry" />
        </mxCell>
        <mxCell id="AnVdaM48TsKzXqkaSUUS-133" value="&lt;div style=&quot;text-align: left;&quot;&gt;&lt;u style=&quot;background-color: initial; text-align: center;&quot;&gt;Invoice_ID&lt;/u&gt;&lt;span style=&quot;background-color: initial; text-align: center;&quot;&gt;&amp;nbsp;&lt;/span&gt;&lt;span style=&quot;background-color: initial;&quot;&gt;&lt;span style=&quot;text-align: center;&quot;&gt;: int (FK)&lt;/span&gt;&lt;/span&gt;&lt;/div&gt;" style="text;html=1;strokeColor=none;fillColor=none;align=left;verticalAlign=top;spacingLeft=4;spacingRight=4;whiteSpace=wrap;overflow=hidden;rotatable=0;points=[[0,0.5],[1,0.5]];portConstraint=eastwest;fontSize=14;" parent="AnVdaM48TsKzXqkaSUUS-132" vertex="1">
          <mxGeometry y="26" width="160" height="26" as="geometry" />
        </mxCell>
        <mxCell id="AnVdaM48TsKzXqkaSUUS-134" value="&lt;span style=&quot;text-align: center;&quot;&gt;Booking_ID&lt;/span&gt;&lt;span style=&quot;text-decoration-line: underline; text-align: center;&quot;&gt;&amp;nbsp;&lt;/span&gt;: int&amp;nbsp;&amp;nbsp;&lt;span style=&quot;text-align: center;&quot;&gt;(FK)&lt;/span&gt;" style="text;html=1;strokeColor=none;fillColor=none;align=left;verticalAlign=top;spacingLeft=4;spacingRight=4;whiteSpace=wrap;overflow=hidden;rotatable=0;points=[[0,0.5],[1,0.5]];portConstraint=eastwest;fontSize=14;" parent="AnVdaM48TsKzXqkaSUUS-132" vertex="1">
          <mxGeometry y="52" width="160" height="26" as="geometry" />
        </mxCell>
        <mxCell id="AnVdaM48TsKzXqkaSUUS-135" style="edgeStyle=orthogonalEdgeStyle;rounded=0;orthogonalLoop=1;jettySize=auto;html=1;entryX=0.015;entryY=0.317;entryDx=0;entryDy=0;entryPerimeter=0;" parent="1" source="AnVdaM48TsKzXqkaSUUS-133" target="78961159f06e98e8-96" edge="1">
          <mxGeometry relative="1" as="geometry" />
        </mxCell>
        <mxCell id="AnVdaM48TsKzXqkaSUUS-136" style="edgeStyle=orthogonalEdgeStyle;rounded=0;orthogonalLoop=1;jettySize=auto;html=1;entryX=1;entryY=0.5;entryDx=0;entryDy=0;" parent="1" source="AnVdaM48TsKzXqkaSUUS-134" target="78961159f06e98e8-83" edge="1">
          <mxGeometry relative="1" as="geometry" />
        </mxCell>
        <mxCell id="AnVdaM48TsKzXqkaSUUS-146" value="&lt;span style=&quot;font-family: Helvetica; text-wrap: wrap;&quot;&gt;&lt;font style=&quot;font-size: 12px;&quot;&gt;Reservation_Cancellation&lt;/font&gt;&lt;/span&gt;" style="swimlane;html=1;fontStyle=1;align=center;verticalAlign=top;childLayout=stackLayout;horizontal=1;startSize=26;horizontalStack=0;resizeParent=1;resizeLast=0;collapsible=1;marginBottom=0;swimlaneFillColor=#ffffff;rounded=0;shadow=0;comic=0;labelBackgroundColor=none;strokeWidth=1;fillColor=#eeeeee;fontFamily=Verdana;fontSize=14;strokeColor=#36393d;" parent="1" vertex="1">
          <mxGeometry x="1190" y="318" width="180" height="156" as="geometry" />
        </mxCell>
        <mxCell id="AnVdaM48TsKzXqkaSUUS-147" value="&lt;u style=&quot;font-size: 14px; text-align: center;&quot;&gt;Cancellation_ID&amp;nbsp;&lt;/u&gt;: int (PK)" style="text;html=1;strokeColor=none;fillColor=none;align=left;verticalAlign=top;spacingLeft=4;spacingRight=4;whiteSpace=wrap;overflow=hidden;rotatable=0;points=[[0,0.5],[1,0.5]];portConstraint=eastwest;fontSize=14;" parent="AnVdaM48TsKzXqkaSUUS-146" vertex="1">
          <mxGeometry y="26" width="180" height="26" as="geometry" />
        </mxCell>
        <mxCell id="AnVdaM48TsKzXqkaSUUS-152" value="&lt;span style=&quot;text-align: center;&quot;&gt;Booking_ID&lt;/span&gt;&lt;span style=&quot;text-decoration-line: underline; text-align: center;&quot;&gt;&amp;nbsp;&lt;/span&gt;: int&amp;nbsp;&lt;span style=&quot;text-align: center;&quot;&gt;(FK)&lt;/span&gt;" style="text;html=1;strokeColor=none;fillColor=none;align=left;verticalAlign=top;spacingLeft=4;spacingRight=4;whiteSpace=wrap;overflow=hidden;rotatable=0;points=[[0,0.5],[1,0.5]];portConstraint=eastwest;fontSize=14;" parent="AnVdaM48TsKzXqkaSUUS-146" vertex="1">
          <mxGeometry y="52" width="180" height="26" as="geometry" />
        </mxCell>
        <mxCell id="AnVdaM48TsKzXqkaSUUS-148" value="&lt;span style=&quot;font-size: 14px; text-align: center;&quot;&gt;Reason&amp;nbsp;&lt;/span&gt;&amp;nbsp;: varchar" style="text;html=1;strokeColor=none;fillColor=none;align=left;verticalAlign=top;spacingLeft=4;spacingRight=4;whiteSpace=wrap;overflow=hidden;rotatable=0;points=[[0,0.5],[1,0.5]];portConstraint=eastwest;fontSize=14;" parent="AnVdaM48TsKzXqkaSUUS-146" vertex="1">
          <mxGeometry y="78" width="180" height="26" as="geometry" />
        </mxCell>
        <mxCell id="AnVdaM48TsKzXqkaSUUS-149" value="&lt;span style=&quot;font-size: 14px; text-align: center;&quot;&gt;Cancellatioan_date&amp;nbsp;&lt;/span&gt;&lt;span style=&quot;font-size: 14px; text-align: center;&quot;&gt;&amp;nbsp;&lt;/span&gt;: date" style="text;html=1;strokeColor=none;fillColor=none;align=left;verticalAlign=top;spacingLeft=4;spacingRight=4;whiteSpace=wrap;overflow=hidden;rotatable=0;points=[[0,0.5],[1,0.5]];portConstraint=eastwest;fontSize=14;" parent="AnVdaM48TsKzXqkaSUUS-146" vertex="1">
          <mxGeometry y="104" width="180" height="26" as="geometry" />
        </mxCell>
        <mxCell id="AnVdaM48TsKzXqkaSUUS-150" value="&lt;span style=&quot;font-size: 14px; text-align: center;&quot;&gt;Refund_amount&lt;/span&gt;&lt;span style=&quot;font-size: 14px; text-align: center;&quot;&gt;&amp;nbsp;&lt;/span&gt;: float" style="text;html=1;strokeColor=none;fillColor=none;align=left;verticalAlign=top;spacingLeft=4;spacingRight=4;whiteSpace=wrap;overflow=hidden;rotatable=0;points=[[0,0.5],[1,0.5]];portConstraint=eastwest;fontSize=14;" parent="AnVdaM48TsKzXqkaSUUS-146" vertex="1">
          <mxGeometry y="130" width="180" height="26" as="geometry" />
        </mxCell>
        <mxCell id="AnVdaM48TsKzXqkaSUUS-153" style="edgeStyle=orthogonalEdgeStyle;rounded=0;orthogonalLoop=1;jettySize=auto;html=1;entryX=1;entryY=0.5;entryDx=0;entryDy=0;" parent="1" source="AnVdaM48TsKzXqkaSUUS-152" target="78961159f06e98e8-83" edge="1">
          <mxGeometry relative="1" as="geometry" />
        </mxCell>
        <mxCell id="AnVdaM48TsKzXqkaSUUS-154" value="Booking_Room" style="swimlane;html=1;fontStyle=1;align=center;verticalAlign=top;childLayout=stackLayout;horizontal=1;startSize=26;horizontalStack=0;resizeParent=1;resizeLast=0;collapsible=1;marginBottom=0;swimlaneFillColor=#ffffff;rounded=0;shadow=0;comic=0;labelBackgroundColor=none;strokeWidth=1;fillColor=#eeeeee;fontFamily=Verdana;fontSize=14;strokeColor=#36393d;" parent="1" vertex="1">
          <mxGeometry x="120" y="194" width="160" height="80" as="geometry" />
        </mxCell>
        <mxCell id="AnVdaM48TsKzXqkaSUUS-157" value="&lt;span style=&quot;text-align: center;&quot;&gt;&lt;u&gt;Booking_ID&lt;/u&gt;&lt;/span&gt;&lt;span style=&quot;text-decoration-line: underline; text-align: center;&quot;&gt;&amp;nbsp;&lt;/span&gt;: int&amp;nbsp;&lt;span style=&quot;text-align: center;&quot;&gt;(FK)&lt;/span&gt;" style="text;html=1;strokeColor=none;fillColor=none;align=left;verticalAlign=top;spacingLeft=4;spacingRight=4;whiteSpace=wrap;overflow=hidden;rotatable=0;points=[[0,0.5],[1,0.5]];portConstraint=eastwest;fontSize=14;" parent="AnVdaM48TsKzXqkaSUUS-154" vertex="1">
          <mxGeometry y="26" width="160" height="26" as="geometry" />
        </mxCell>
        <mxCell id="AnVdaM48TsKzXqkaSUUS-155" value="&lt;span style=&quot;text-align: center; font-size: 14px;&quot;&gt;Room _ID&lt;/span&gt;&lt;u&gt;:&lt;/u&gt; int&amp;nbsp;&lt;span style=&quot;text-align: center;&quot;&gt;(FK)&lt;/span&gt;" style="text;html=1;strokeColor=none;fillColor=none;align=left;verticalAlign=top;spacingLeft=4;spacingRight=4;whiteSpace=wrap;overflow=hidden;rotatable=0;points=[[0,0.5],[1,0.5]];portConstraint=eastwest;fontSize=14;" parent="AnVdaM48TsKzXqkaSUUS-154" vertex="1">
          <mxGeometry y="52" width="160" height="26" as="geometry" />
        </mxCell>
        <mxCell id="AnVdaM48TsKzXqkaSUUS-158" style="edgeStyle=orthogonalEdgeStyle;rounded=0;orthogonalLoop=1;jettySize=auto;html=1;entryX=0;entryY=0.5;entryDx=0;entryDy=0;" parent="1" source="AnVdaM48TsKzXqkaSUUS-157" target="78961159f06e98e8-83" edge="1">
          <mxGeometry relative="1" as="geometry" />
        </mxCell>
        <mxCell id="AnVdaM48TsKzXqkaSUUS-159" style="edgeStyle=orthogonalEdgeStyle;rounded=0;orthogonalLoop=1;jettySize=auto;html=1;entryX=1;entryY=0.5;entryDx=0;entryDy=0;" parent="1" source="AnVdaM48TsKzXqkaSUUS-155" target="78961159f06e98e8-70" edge="1">
          <mxGeometry relative="1" as="geometry" />
        </mxCell>
        <mxCell id="xuSP38dfbPnXMIdWxUSy-1" value="User" style="swimlane;html=1;fontStyle=1;align=center;verticalAlign=top;childLayout=stackLayout;horizontal=1;startSize=26;horizontalStack=0;resizeParent=1;resizeLast=0;collapsible=1;marginBottom=0;swimlaneFillColor=#ffffff;rounded=0;shadow=0;comic=0;labelBackgroundColor=none;strokeWidth=1;fillColor=#eeeeee;fontFamily=Verdana;fontSize=14;strokeColor=#36393d;" parent="1" vertex="1">
          <mxGeometry x="1050" y="-470" width="200" height="210" as="geometry" />
        </mxCell>
        <mxCell id="xuSP38dfbPnXMIdWxUSy-2" value="&lt;span style=&quot;font-size: 14px; text-align: center; text-decoration-line: underline;&quot;&gt;User_ID&lt;/span&gt;&amp;nbsp;: int (PK)" style="text;html=1;strokeColor=none;fillColor=none;align=left;verticalAlign=top;spacingLeft=4;spacingRight=4;whiteSpace=wrap;overflow=hidden;rotatable=0;points=[[0,0.5],[1,0.5]];portConstraint=eastwest;fontSize=14;" parent="xuSP38dfbPnXMIdWxUSy-1" vertex="1">
          <mxGeometry y="26" width="200" height="26" as="geometry" />
        </mxCell>
        <mxCell id="xuSP38dfbPnXMIdWxUSy-3" value="&lt;span style=&quot;font-size: 14px; text-align: center;&quot;&gt;User_Name :&lt;/span&gt;&amp;nbsp;varchar" style="text;html=1;strokeColor=none;fillColor=none;align=left;verticalAlign=top;spacingLeft=4;spacingRight=4;whiteSpace=wrap;overflow=hidden;rotatable=0;points=[[0,0.5],[1,0.5]];portConstraint=eastwest;fontSize=14;" parent="xuSP38dfbPnXMIdWxUSy-1" vertex="1">
          <mxGeometry y="52" width="200" height="26" as="geometry" />
        </mxCell>
        <mxCell id="xuSP38dfbPnXMIdWxUSy-4" value="&lt;div style=&quot;text-align: center;&quot;&gt;User_Role&amp;nbsp; &amp;nbsp;:&amp;nbsp; varchar&lt;/div&gt;" style="text;html=1;strokeColor=none;fillColor=none;align=left;verticalAlign=top;spacingLeft=4;spacingRight=4;whiteSpace=wrap;overflow=hidden;rotatable=0;points=[[0,0.5],[1,0.5]];portConstraint=eastwest;fontSize=14;" parent="xuSP38dfbPnXMIdWxUSy-1" vertex="1">
          <mxGeometry y="78" width="200" height="26" as="geometry" />
        </mxCell>
        <mxCell id="xuSP38dfbPnXMIdWxUSy-5" value="&lt;span style=&quot;font-size: 14px; text-align: center;&quot;&gt;Emaile&lt;/span&gt;:&amp;nbsp; varchar" style="text;html=1;strokeColor=none;fillColor=none;align=left;verticalAlign=top;spacingLeft=4;spacingRight=4;whiteSpace=wrap;overflow=hidden;rotatable=0;points=[[0,0.5],[1,0.5]];portConstraint=eastwest;fontSize=14;" parent="xuSP38dfbPnXMIdWxUSy-1" vertex="1">
          <mxGeometry y="104" width="200" height="30" as="geometry" />
        </mxCell>
        <mxCell id="xuSP38dfbPnXMIdWxUSy-6" value="&lt;span style=&quot;font-size: 14px; text-align: center;&quot;&gt;Password&amp;nbsp;&lt;/span&gt;: varchar&lt;div&gt;&lt;br&gt;&lt;/div&gt;&lt;div&gt;Date_joined: Date&lt;/div&gt;" style="text;html=1;strokeColor=none;fillColor=none;align=left;verticalAlign=top;spacingLeft=4;spacingRight=4;whiteSpace=wrap;overflow=hidden;rotatable=0;points=[[0,0.5],[1,0.5]];portConstraint=eastwest;fontSize=14;" parent="xuSP38dfbPnXMIdWxUSy-1" vertex="1">
          <mxGeometry y="134" width="200" height="76" as="geometry" />
        </mxCell>
        <mxCell id="xuSP38dfbPnXMIdWxUSy-51" style="edgeStyle=orthogonalEdgeStyle;rounded=0;orthogonalLoop=1;jettySize=auto;html=1;exitX=0.5;exitY=0;exitDx=0;exitDy=0;" parent="1" source="xuSP38dfbPnXMIdWxUSy-11" edge="1">
          <mxGeometry relative="1" as="geometry">
            <mxPoint x="1140" y="-260" as="targetPoint" />
          </mxGeometry>
        </mxCell>
        <mxCell id="xuSP38dfbPnXMIdWxUSy-11" value="User_Phone" style="swimlane;html=1;fontStyle=1;align=center;verticalAlign=top;childLayout=stackLayout;horizontal=1;startSize=26;horizontalStack=0;resizeParent=1;resizeLast=0;collapsible=1;marginBottom=0;swimlaneFillColor=#ffffff;rounded=0;shadow=0;comic=0;labelBackgroundColor=none;strokeWidth=1;fillColor=#eeeeee;fontFamily=Verdana;fontSize=14;strokeColor=#36393d;" parent="1" vertex="1">
          <mxGeometry x="1040" y="-180" width="200" height="130" as="geometry" />
        </mxCell>
        <mxCell id="xuSP38dfbPnXMIdWxUSy-12" value="&lt;span style=&quot;font-size: 14px; text-align: center; text-decoration-line: underline;&quot;&gt;User_ID&lt;/span&gt;&amp;nbsp;: int (FK)" style="text;html=1;strokeColor=none;fillColor=none;align=left;verticalAlign=top;spacingLeft=4;spacingRight=4;whiteSpace=wrap;overflow=hidden;rotatable=0;points=[[0,0.5],[1,0.5]];portConstraint=eastwest;fontSize=14;" parent="xuSP38dfbPnXMIdWxUSy-11" vertex="1">
          <mxGeometry y="26" width="200" height="26" as="geometry" />
        </mxCell>
        <mxCell id="xuSP38dfbPnXMIdWxUSy-13" value="&lt;span style=&quot;font-size: 14px; text-align: center;&quot;&gt;Phone :&lt;/span&gt;&amp;nbsp;char" style="text;html=1;strokeColor=none;fillColor=none;align=left;verticalAlign=top;spacingLeft=4;spacingRight=4;whiteSpace=wrap;overflow=hidden;rotatable=0;points=[[0,0.5],[1,0.5]];portConstraint=eastwest;fontSize=14;" parent="xuSP38dfbPnXMIdWxUSy-11" vertex="1">
          <mxGeometry y="52" width="200" height="26" as="geometry" />
        </mxCell>
        <mxCell id="xuSP38dfbPnXMIdWxUSy-44" value="&lt;div style=&quot;text-align: center;&quot;&gt;PK (User_id,Phone)&lt;/div&gt;" style="text;html=1;strokeColor=none;fillColor=none;align=left;verticalAlign=top;spacingLeft=4;spacingRight=4;whiteSpace=wrap;overflow=hidden;rotatable=0;points=[[0,0.5],[1,0.5]];portConstraint=eastwest;fontSize=14;" parent="xuSP38dfbPnXMIdWxUSy-11" vertex="1">
          <mxGeometry y="78" width="200" height="26" as="geometry" />
        </mxCell>
        <mxCell id="xuSP38dfbPnXMIdWxUSy-18" value="Feedback" style="swimlane;html=1;fontStyle=1;align=center;verticalAlign=top;childLayout=stackLayout;horizontal=1;startSize=26;horizontalStack=0;resizeParent=1;resizeLast=0;collapsible=1;marginBottom=0;swimlaneFillColor=#ffffff;rounded=0;shadow=0;comic=0;labelBackgroundColor=none;strokeWidth=1;fillColor=#eeeeee;fontFamily=Verdana;fontSize=14;strokeColor=#36393d;" parent="1" vertex="1">
          <mxGeometry x="1420" y="-470" width="200" height="240" as="geometry" />
        </mxCell>
        <mxCell id="xuSP38dfbPnXMIdWxUSy-19" value="&lt;span style=&quot;font-size: 14px; text-align: center; text-decoration-line: underline;&quot;&gt;Feedback_ID&lt;/span&gt;&amp;nbsp;: int (PK)" style="text;html=1;strokeColor=none;fillColor=none;align=left;verticalAlign=top;spacingLeft=4;spacingRight=4;whiteSpace=wrap;overflow=hidden;rotatable=0;points=[[0,0.5],[1,0.5]];portConstraint=eastwest;fontSize=14;" parent="xuSP38dfbPnXMIdWxUSy-18" vertex="1">
          <mxGeometry y="26" width="200" height="26" as="geometry" />
        </mxCell>
        <mxCell id="xuSP38dfbPnXMIdWxUSy-20" value="&lt;span style=&quot;font-size: 14px; text-align: center;&quot;&gt;Subject :&lt;/span&gt;&amp;nbsp;varchar" style="text;html=1;strokeColor=none;fillColor=none;align=left;verticalAlign=top;spacingLeft=4;spacingRight=4;whiteSpace=wrap;overflow=hidden;rotatable=0;points=[[0,0.5],[1,0.5]];portConstraint=eastwest;fontSize=14;" parent="xuSP38dfbPnXMIdWxUSy-18" vertex="1">
          <mxGeometry y="52" width="200" height="26" as="geometry" />
        </mxCell>
        <mxCell id="xuSP38dfbPnXMIdWxUSy-21" value="&lt;div style=&quot;text-align: center;&quot;&gt;Submission_Date : Date&lt;/div&gt;" style="text;html=1;strokeColor=none;fillColor=none;align=left;verticalAlign=top;spacingLeft=4;spacingRight=4;whiteSpace=wrap;overflow=hidden;rotatable=0;points=[[0,0.5],[1,0.5]];portConstraint=eastwest;fontSize=14;" parent="xuSP38dfbPnXMIdWxUSy-18" vertex="1">
          <mxGeometry y="78" width="200" height="26" as="geometry" />
        </mxCell>
        <mxCell id="xuSP38dfbPnXMIdWxUSy-22" value="&lt;div style=&quot;text-align: center;&quot;&gt;&lt;span style=&quot;background-color: initial;&quot;&gt;Comment:&amp;nbsp; varchar&lt;/span&gt;&lt;/div&gt;" style="text;html=1;strokeColor=none;fillColor=none;align=left;verticalAlign=top;spacingLeft=4;spacingRight=4;whiteSpace=wrap;overflow=hidden;rotatable=0;points=[[0,0.5],[1,0.5]];portConstraint=eastwest;fontSize=14;" parent="xuSP38dfbPnXMIdWxUSy-18" vertex="1">
          <mxGeometry y="104" width="200" height="30" as="geometry" />
        </mxCell>
        <mxCell id="xuSP38dfbPnXMIdWxUSy-23" value="&lt;span style=&quot;font-size: 14px; text-align: center;&quot;&gt;Rating&amp;nbsp;&lt;/span&gt;: int&lt;div&gt;&lt;br&gt;&lt;/div&gt;&lt;div&gt;Hotel_id: int (FK)&lt;/div&gt;&lt;div&gt;&lt;br&gt;&lt;/div&gt;&lt;div&gt;User_id: int (FK)&lt;br&gt;&lt;/div&gt;" style="text;html=1;strokeColor=none;fillColor=none;align=left;verticalAlign=top;spacingLeft=4;spacingRight=4;whiteSpace=wrap;overflow=hidden;rotatable=0;points=[[0,0.5],[1,0.5]];portConstraint=eastwest;fontSize=14;" parent="xuSP38dfbPnXMIdWxUSy-18" vertex="1">
          <mxGeometry y="134" width="200" height="106" as="geometry" />
        </mxCell>
        <mxCell id="xuSP38dfbPnXMIdWxUSy-59" style="edgeStyle=orthogonalEdgeStyle;rounded=0;orthogonalLoop=1;jettySize=auto;html=1;exitX=0;exitY=0;exitDx=0;exitDy=0;entryX=0.646;entryY=0.995;entryDx=0;entryDy=0;entryPerimeter=0;" parent="1" source="xuSP38dfbPnXMIdWxUSy-24" target="xuSP38dfbPnXMIdWxUSy-6" edge="1">
          <mxGeometry relative="1" as="geometry">
            <mxPoint x="1180" y="-250" as="targetPoint" />
            <Array as="points">
              <mxPoint x="1670" y="-190" />
              <mxPoint x="1179" y="-190" />
            </Array>
          </mxGeometry>
        </mxCell>
        <mxCell id="xuSP38dfbPnXMIdWxUSy-24" value="Loyality_Program" style="swimlane;html=1;fontStyle=1;align=center;verticalAlign=top;childLayout=stackLayout;horizontal=1;startSize=26;horizontalStack=0;resizeParent=1;resizeLast=0;collapsible=1;marginBottom=0;swimlaneFillColor=#ffffff;rounded=0;shadow=0;comic=0;labelBackgroundColor=none;strokeWidth=1;fillColor=#eeeeee;fontFamily=Verdana;fontSize=14;strokeColor=#36393d;" parent="1" vertex="1">
          <mxGeometry x="1670" y="-180" width="200" height="230" as="geometry" />
        </mxCell>
        <mxCell id="xuSP38dfbPnXMIdWxUSy-25" value="&lt;span style=&quot;font-size: 14px; text-align: center; text-decoration-line: underline;&quot;&gt;Program_ID&lt;/span&gt;&amp;nbsp;: int (PK)" style="text;html=1;strokeColor=none;fillColor=none;align=left;verticalAlign=top;spacingLeft=4;spacingRight=4;whiteSpace=wrap;overflow=hidden;rotatable=0;points=[[0,0.5],[1,0.5]];portConstraint=eastwest;fontSize=14;" parent="xuSP38dfbPnXMIdWxUSy-24" vertex="1">
          <mxGeometry y="26" width="200" height="26" as="geometry" />
        </mxCell>
        <mxCell id="xuSP38dfbPnXMIdWxUSy-26" value="&lt;span style=&quot;font-size: 14px; text-align: center;&quot;&gt;Tier:&lt;/span&gt;&amp;nbsp;varchar" style="text;html=1;strokeColor=none;fillColor=none;align=left;verticalAlign=top;spacingLeft=4;spacingRight=4;whiteSpace=wrap;overflow=hidden;rotatable=0;points=[[0,0.5],[1,0.5]];portConstraint=eastwest;fontSize=14;" parent="xuSP38dfbPnXMIdWxUSy-24" vertex="1">
          <mxGeometry y="52" width="200" height="26" as="geometry" />
        </mxCell>
        <mxCell id="xuSP38dfbPnXMIdWxUSy-27" value="&lt;div style=&quot;text-align: center;&quot;&gt;Enrollment_Date : Date&lt;/div&gt;" style="text;html=1;strokeColor=none;fillColor=none;align=left;verticalAlign=top;spacingLeft=4;spacingRight=4;whiteSpace=wrap;overflow=hidden;rotatable=0;points=[[0,0.5],[1,0.5]];portConstraint=eastwest;fontSize=14;" parent="xuSP38dfbPnXMIdWxUSy-24" vertex="1">
          <mxGeometry y="78" width="200" height="26" as="geometry" />
        </mxCell>
        <mxCell id="xuSP38dfbPnXMIdWxUSy-42" value="&lt;div&gt;Points : int&lt;/div&gt;&lt;div&gt;&lt;br&gt;&lt;/div&gt;&lt;div&gt;User_id :int (FK)&lt;/div&gt;&lt;div&gt;&lt;br&gt;&lt;/div&gt;&lt;div&gt;Promotion_id : int (FK)&lt;/div&gt;&lt;div&gt;&lt;br&gt;&lt;/div&gt;&lt;div&gt;&lt;br&gt;&lt;/div&gt;&lt;div&gt;&lt;br&gt;&lt;/div&gt;" style="text;html=1;strokeColor=none;fillColor=none;align=left;verticalAlign=top;spacingLeft=4;spacingRight=4;whiteSpace=wrap;overflow=hidden;rotatable=0;points=[[0,0.5],[1,0.5]];portConstraint=eastwest;fontSize=14;" parent="xuSP38dfbPnXMIdWxUSy-24" vertex="1">
          <mxGeometry y="104" width="200" height="106" as="geometry" />
        </mxCell>
        <mxCell id="xuSP38dfbPnXMIdWxUSy-30" value="Promotion&amp;nbsp;" style="swimlane;html=1;fontStyle=1;align=center;verticalAlign=top;childLayout=stackLayout;horizontal=1;startSize=26;horizontalStack=0;resizeParent=1;resizeLast=0;collapsible=1;marginBottom=0;swimlaneFillColor=#ffffff;rounded=0;shadow=0;comic=0;labelBackgroundColor=none;strokeWidth=1;fillColor=#eeeeee;fontFamily=Verdana;fontSize=14;strokeColor=#36393d;" parent="1" vertex="1">
          <mxGeometry x="1330" y="-153" width="200" height="270" as="geometry" />
        </mxCell>
        <mxCell id="xuSP38dfbPnXMIdWxUSy-31" value="&lt;span style=&quot;font-size: 14px; text-align: center; text-decoration-line: underline;&quot;&gt;Promotion_ID&lt;/span&gt;&amp;nbsp;: int (PK)" style="text;html=1;strokeColor=none;fillColor=none;align=left;verticalAlign=top;spacingLeft=4;spacingRight=4;whiteSpace=wrap;overflow=hidden;rotatable=0;points=[[0,0.5],[1,0.5]];portConstraint=eastwest;fontSize=14;" parent="xuSP38dfbPnXMIdWxUSy-30" vertex="1">
          <mxGeometry y="26" width="200" height="26" as="geometry" />
        </mxCell>
        <mxCell id="xuSP38dfbPnXMIdWxUSy-32" value="&lt;span style=&quot;font-size: 14px; text-align: center;&quot;&gt;Discount_Percentag :&lt;/span&gt;&amp;nbsp;int" style="text;html=1;strokeColor=none;fillColor=none;align=left;verticalAlign=top;spacingLeft=4;spacingRight=4;whiteSpace=wrap;overflow=hidden;rotatable=0;points=[[0,0.5],[1,0.5]];portConstraint=eastwest;fontSize=14;" parent="xuSP38dfbPnXMIdWxUSy-30" vertex="1">
          <mxGeometry y="52" width="200" height="26" as="geometry" />
        </mxCell>
        <mxCell id="xuSP38dfbPnXMIdWxUSy-33" value="&lt;div style=&quot;text-align: center;&quot;&gt;Title&amp;nbsp; &amp;nbsp;:&amp;nbsp; varchar&lt;/div&gt;" style="text;html=1;strokeColor=none;fillColor=none;align=left;verticalAlign=top;spacingLeft=4;spacingRight=4;whiteSpace=wrap;overflow=hidden;rotatable=0;points=[[0,0.5],[1,0.5]];portConstraint=eastwest;fontSize=14;" parent="xuSP38dfbPnXMIdWxUSy-30" vertex="1">
          <mxGeometry y="78" width="200" height="26" as="geometry" />
        </mxCell>
        <mxCell id="xuSP38dfbPnXMIdWxUSy-34" value="Start_Date: Date" style="text;html=1;strokeColor=none;fillColor=none;align=left;verticalAlign=top;spacingLeft=4;spacingRight=4;whiteSpace=wrap;overflow=hidden;rotatable=0;points=[[0,0.5],[1,0.5]];portConstraint=eastwest;fontSize=14;" parent="xuSP38dfbPnXMIdWxUSy-30" vertex="1">
          <mxGeometry y="104" width="200" height="30" as="geometry" />
        </mxCell>
        <mxCell id="xuSP38dfbPnXMIdWxUSy-35" value="&lt;div&gt;End_Date: Date&lt;br&gt;&lt;/div&gt;&lt;div&gt;&lt;br&gt;&lt;/div&gt;&lt;div&gt;Date_joined: Date&lt;/div&gt;&lt;div&gt;&lt;br&gt;&lt;/div&gt;&lt;div&gt;Description :varchar&amp;nbsp;&lt;/div&gt;&lt;div&gt;&lt;br&gt;&lt;/div&gt;&lt;div&gt;Hotel_id :int (FK)&lt;/div&gt;" style="text;html=1;strokeColor=none;fillColor=none;align=left;verticalAlign=top;spacingLeft=4;spacingRight=4;whiteSpace=wrap;overflow=hidden;rotatable=0;points=[[0,0.5],[1,0.5]];portConstraint=eastwest;fontSize=14;" parent="xuSP38dfbPnXMIdWxUSy-30" vertex="1">
          <mxGeometry y="134" width="200" height="136" as="geometry" />
        </mxCell>
        <mxCell id="xuSP38dfbPnXMIdWxUSy-53" style="edgeStyle=orthogonalEdgeStyle;rounded=0;orthogonalLoop=1;jettySize=auto;html=1;exitX=0;exitY=0.5;exitDx=0;exitDy=0;entryX=1;entryY=0.5;entryDx=0;entryDy=0;" parent="1" source="xuSP38dfbPnXMIdWxUSy-22" target="xuSP38dfbPnXMIdWxUSy-5" edge="1">
          <mxGeometry relative="1" as="geometry" />
        </mxCell>
        <mxCell id="xuSP38dfbPnXMIdWxUSy-55" style="edgeStyle=orthogonalEdgeStyle;rounded=0;orthogonalLoop=1;jettySize=auto;html=1;exitX=0.25;exitY=0;exitDx=0;exitDy=0;" parent="1" source="xuSP38dfbPnXMIdWxUSy-18" edge="1">
          <mxGeometry relative="1" as="geometry">
            <mxPoint x="421" y="-200" as="targetPoint" />
            <Array as="points">
              <mxPoint x="1470" y="-490" />
              <mxPoint x="930" y="-490" />
              <mxPoint x="930" y="-320" />
              <mxPoint x="421" y="-320" />
            </Array>
          </mxGeometry>
        </mxCell>
        <mxCell id="xuSP38dfbPnXMIdWxUSy-57" style="edgeStyle=orthogonalEdgeStyle;rounded=0;orthogonalLoop=1;jettySize=auto;html=1;exitX=0;exitY=0.5;exitDx=0;exitDy=0;" parent="1" source="xuSP38dfbPnXMIdWxUSy-34" target="78961159f06e98e8-26" edge="1">
          <mxGeometry relative="1" as="geometry">
            <Array as="points">
              <mxPoint x="1330" y="10" />
              <mxPoint x="490" y="10" />
              <mxPoint x="490" y="-21" />
            </Array>
          </mxGeometry>
        </mxCell>
        <mxCell id="xuSP38dfbPnXMIdWxUSy-60" style="edgeStyle=orthogonalEdgeStyle;rounded=0;orthogonalLoop=1;jettySize=auto;html=1;exitX=0;exitY=0.5;exitDx=0;exitDy=0;entryX=1.006;entryY=-0.034;entryDx=0;entryDy=0;entryPerimeter=0;" parent="1" source="xuSP38dfbPnXMIdWxUSy-42" target="xuSP38dfbPnXMIdWxUSy-35" edge="1">
          <mxGeometry relative="1" as="geometry" />
        </mxCell>
        <mxCell id="xuSP38dfbPnXMIdWxUSy-61" style="edgeStyle=orthogonalEdgeStyle;rounded=0;orthogonalLoop=1;jettySize=auto;html=1;exitX=0.5;exitY=0;exitDx=0;exitDy=0;entryX=0.014;entryY=0.847;entryDx=0;entryDy=0;entryPerimeter=0;" parent="1" source="78961159f06e98e8-82" target="xuSP38dfbPnXMIdWxUSy-6" edge="1">
          <mxGeometry relative="1" as="geometry" />
        </mxCell>
      </root>
    </mxGraphModel>
  </diagram>
  <diagram id="cATDqTf6Vsyv6wCS9CYx" name="Page-2">
    <mxGraphModel dx="2569" dy="752" grid="1" gridSize="10" guides="1" tooltips="1" connect="1" arrows="1" fold="1" page="1" pageScale="1" pageWidth="1169" pageHeight="827" math="0" shadow="0">
      <root>
        <mxCell id="0" />
        <mxCell id="1" parent="0" />
        <mxCell id="6y2mxMuJmbYyFpyy88kN-1" value="Patient&amp;nbsp;" style="swimlane;html=1;fontStyle=1;align=center;verticalAlign=top;childLayout=stackLayout;horizontal=1;startSize=26;horizontalStack=0;resizeParent=1;resizeLast=0;collapsible=1;marginBottom=0;swimlaneFillColor=#ffffff;rounded=0;shadow=0;comic=0;labelBackgroundColor=none;strokeWidth=1;fillColor=#eeeeee;fontFamily=Verdana;fontSize=14;strokeColor=#36393d;" vertex="1" parent="1">
          <mxGeometry x="-870" y="80" width="160" height="170" as="geometry" />
        </mxCell>
        <mxCell id="6y2mxMuJmbYyFpyy88kN-2" value="&lt;div style=&quot;text-align: center;&quot;&gt;&lt;span style=&quot;background-color: initial;&quot;&gt;&lt;u&gt;ID&lt;/u&gt;: int (PK)&lt;/span&gt;&lt;/div&gt;" style="text;html=1;strokeColor=none;fillColor=none;align=left;verticalAlign=top;spacingLeft=4;spacingRight=4;whiteSpace=wrap;overflow=hidden;rotatable=0;points=[[0,0.5],[1,0.5]];portConstraint=eastwest;fontSize=14;" vertex="1" parent="6y2mxMuJmbYyFpyy88kN-1">
          <mxGeometry y="26" width="160" height="26" as="geometry" />
        </mxCell>
        <mxCell id="6y2mxMuJmbYyFpyy88kN-3" value="&lt;div style=&quot;text-align: center;&quot;&gt;&lt;span style=&quot;background-color: initial;&quot;&gt;Name :varchar(50)&lt;/span&gt;&lt;/div&gt;" style="text;html=1;strokeColor=none;fillColor=none;align=left;verticalAlign=top;spacingLeft=4;spacingRight=4;whiteSpace=wrap;overflow=hidden;rotatable=0;points=[[0,0.5],[1,0.5]];portConstraint=eastwest;fontSize=14;" vertex="1" parent="6y2mxMuJmbYyFpyy88kN-1">
          <mxGeometry y="52" width="160" height="26" as="geometry" />
        </mxCell>
        <mxCell id="6y2mxMuJmbYyFpyy88kN-4" value="&lt;div style=&quot;text-align: center;&quot;&gt;&lt;span style=&quot;background-color: initial;&quot;&gt;Date_Of_Birth :Date&lt;/span&gt;&lt;/div&gt;" style="text;html=1;strokeColor=none;fillColor=none;align=left;verticalAlign=top;spacingLeft=4;spacingRight=4;whiteSpace=wrap;overflow=hidden;rotatable=0;points=[[0,0.5],[1,0.5]];portConstraint=eastwest;fontSize=14;" vertex="1" parent="6y2mxMuJmbYyFpyy88kN-1">
          <mxGeometry y="78" width="160" height="26" as="geometry" />
        </mxCell>
        <mxCell id="6y2mxMuJmbYyFpyy88kN-29" value="&lt;div style=&quot;text-align: center;&quot;&gt;&lt;span style=&quot;background-color: initial;&quot;&gt;Ward_id: int (FK)&lt;/span&gt;&lt;/div&gt;" style="text;html=1;strokeColor=none;fillColor=none;align=left;verticalAlign=top;spacingLeft=4;spacingRight=4;whiteSpace=wrap;overflow=hidden;rotatable=0;points=[[0,0.5],[1,0.5]];portConstraint=eastwest;fontSize=14;" vertex="1" parent="6y2mxMuJmbYyFpyy88kN-1">
          <mxGeometry y="104" width="160" height="26" as="geometry" />
        </mxCell>
        <mxCell id="6y2mxMuJmbYyFpyy88kN-30" value="&lt;div style=&quot;text-align: center;&quot;&gt;&lt;span style=&quot;background-color: initial;&quot;&gt;Consult_ID: int (FK)&lt;/span&gt;&lt;/div&gt;" style="text;html=1;strokeColor=none;fillColor=none;align=left;verticalAlign=top;spacingLeft=4;spacingRight=4;whiteSpace=wrap;overflow=hidden;rotatable=0;points=[[0,0.5],[1,0.5]];portConstraint=eastwest;fontSize=14;" vertex="1" parent="6y2mxMuJmbYyFpyy88kN-1">
          <mxGeometry y="130" width="160" height="26" as="geometry" />
        </mxCell>
        <mxCell id="6y2mxMuJmbYyFpyy88kN-8" value="Nurse" style="swimlane;html=1;fontStyle=1;align=center;verticalAlign=top;childLayout=stackLayout;horizontal=1;startSize=26;horizontalStack=0;resizeParent=1;resizeLast=0;collapsible=1;marginBottom=0;swimlaneFillColor=#ffffff;rounded=0;shadow=0;comic=0;labelBackgroundColor=none;strokeWidth=1;fillColor=#eeeeee;fontFamily=Verdana;fontSize=14;strokeColor=#36393d;" vertex="1" parent="1">
          <mxGeometry x="-620" y="60" width="160" height="150" as="geometry" />
        </mxCell>
        <mxCell id="6y2mxMuJmbYyFpyy88kN-9" value="&lt;div style=&quot;text-align: center;&quot;&gt;&lt;span style=&quot;background-color: initial;&quot;&gt;&lt;u&gt;ID&lt;/u&gt;: int (PK)&lt;/span&gt;&lt;/div&gt;" style="text;html=1;strokeColor=none;fillColor=none;align=left;verticalAlign=top;spacingLeft=4;spacingRight=4;whiteSpace=wrap;overflow=hidden;rotatable=0;points=[[0,0.5],[1,0.5]];portConstraint=eastwest;fontSize=14;" vertex="1" parent="6y2mxMuJmbYyFpyy88kN-8">
          <mxGeometry y="26" width="160" height="26" as="geometry" />
        </mxCell>
        <mxCell id="6y2mxMuJmbYyFpyy88kN-10" value="&lt;div style=&quot;text-align: center;&quot;&gt;&lt;span style=&quot;background-color: initial;&quot;&gt;Name :varchar(50)&lt;/span&gt;&lt;/div&gt;" style="text;html=1;strokeColor=none;fillColor=none;align=left;verticalAlign=top;spacingLeft=4;spacingRight=4;whiteSpace=wrap;overflow=hidden;rotatable=0;points=[[0,0.5],[1,0.5]];portConstraint=eastwest;fontSize=14;" vertex="1" parent="6y2mxMuJmbYyFpyy88kN-8">
          <mxGeometry y="52" width="160" height="26" as="geometry" />
        </mxCell>
        <mxCell id="6y2mxMuJmbYyFpyy88kN-11" value="&lt;div style=&quot;text-align: center;&quot;&gt;&lt;span style=&quot;background-color: initial;&quot;&gt;Ward_id : int (FK)&lt;/span&gt;&lt;/div&gt;" style="text;html=1;strokeColor=none;fillColor=none;align=left;verticalAlign=top;spacingLeft=4;spacingRight=4;whiteSpace=wrap;overflow=hidden;rotatable=0;points=[[0,0.5],[1,0.5]];portConstraint=eastwest;fontSize=14;" vertex="1" parent="6y2mxMuJmbYyFpyy88kN-8">
          <mxGeometry y="78" width="160" height="26" as="geometry" />
        </mxCell>
        <mxCell id="6y2mxMuJmbYyFpyy88kN-12" value="Ward" style="swimlane;html=1;fontStyle=1;align=center;verticalAlign=top;childLayout=stackLayout;horizontal=1;startSize=26;horizontalStack=0;resizeParent=1;resizeLast=0;collapsible=1;marginBottom=0;swimlaneFillColor=#ffffff;rounded=0;shadow=0;comic=0;labelBackgroundColor=none;strokeWidth=1;fillColor=#eeeeee;fontFamily=Verdana;fontSize=14;strokeColor=#36393d;" vertex="1" parent="1">
          <mxGeometry x="-840" y="290" width="160" height="110" as="geometry" />
        </mxCell>
        <mxCell id="6y2mxMuJmbYyFpyy88kN-13" value="&lt;div style=&quot;text-align: center;&quot;&gt;&lt;span style=&quot;background-color: initial;&quot;&gt;&lt;u&gt;ID&lt;/u&gt;: int (PK)&lt;/span&gt;&lt;/div&gt;" style="text;html=1;strokeColor=none;fillColor=none;align=left;verticalAlign=top;spacingLeft=4;spacingRight=4;whiteSpace=wrap;overflow=hidden;rotatable=0;points=[[0,0.5],[1,0.5]];portConstraint=eastwest;fontSize=14;" vertex="1" parent="6y2mxMuJmbYyFpyy88kN-12">
          <mxGeometry y="26" width="160" height="26" as="geometry" />
        </mxCell>
        <mxCell id="6y2mxMuJmbYyFpyy88kN-14" value="&lt;div style=&quot;text-align: center;&quot;&gt;&lt;span style=&quot;background-color: initial;&quot;&gt;Name :varchar(50)&lt;/span&gt;&lt;/div&gt;&lt;div style=&quot;text-align: center;&quot;&gt;&lt;br&gt;&lt;/div&gt;" style="text;html=1;strokeColor=none;fillColor=none;align=left;verticalAlign=top;spacingLeft=4;spacingRight=4;whiteSpace=wrap;overflow=hidden;rotatable=0;points=[[0,0.5],[1,0.5]];portConstraint=eastwest;fontSize=14;" vertex="1" parent="6y2mxMuJmbYyFpyy88kN-12">
          <mxGeometry y="52" width="160" height="26" as="geometry" />
        </mxCell>
        <mxCell id="6y2mxMuJmbYyFpyy88kN-28" value="&lt;div style=&quot;text-align: center;&quot;&gt;&lt;span style=&quot;background-color: initial;&quot;&gt;Name :varchar(50)&lt;/span&gt;&lt;/div&gt;&lt;div style=&quot;text-align: center;&quot;&gt;&lt;br&gt;&lt;/div&gt;" style="text;html=1;strokeColor=none;fillColor=none;align=left;verticalAlign=top;spacingLeft=4;spacingRight=4;whiteSpace=wrap;overflow=hidden;rotatable=0;points=[[0,0.5],[1,0.5]];portConstraint=eastwest;fontSize=14;" vertex="1" parent="6y2mxMuJmbYyFpyy88kN-12">
          <mxGeometry y="78" width="160" height="26" as="geometry" />
        </mxCell>
        <mxCell id="6y2mxMuJmbYyFpyy88kN-16" value="Drug" style="swimlane;html=1;fontStyle=1;align=center;verticalAlign=top;childLayout=stackLayout;horizontal=1;startSize=26;horizontalStack=0;resizeParent=1;resizeLast=0;collapsible=1;marginBottom=0;swimlaneFillColor=#ffffff;rounded=0;shadow=0;comic=0;labelBackgroundColor=none;strokeWidth=1;fillColor=#eeeeee;fontFamily=Verdana;fontSize=14;strokeColor=#36393d;" vertex="1" parent="1">
          <mxGeometry x="-460" y="522" width="160" height="120" as="geometry" />
        </mxCell>
        <mxCell id="6y2mxMuJmbYyFpyy88kN-17" value="&lt;div style=&quot;text-align: center;&quot;&gt;&lt;u&gt;Code_num : int (PK)&lt;/u&gt;&lt;/div&gt;" style="text;html=1;strokeColor=none;fillColor=none;align=left;verticalAlign=top;spacingLeft=4;spacingRight=4;whiteSpace=wrap;overflow=hidden;rotatable=0;points=[[0,0.5],[1,0.5]];portConstraint=eastwest;fontSize=14;" vertex="1" parent="6y2mxMuJmbYyFpyy88kN-16">
          <mxGeometry y="26" width="160" height="26" as="geometry" />
        </mxCell>
        <mxCell id="6y2mxMuJmbYyFpyy88kN-18" value="&lt;div style=&quot;text-align: center;&quot;&gt;&lt;span style=&quot;background-color: initial;&quot;&gt;Reco_dos:varchar(50)&lt;/span&gt;&lt;/div&gt;" style="text;html=1;strokeColor=none;fillColor=none;align=left;verticalAlign=top;spacingLeft=4;spacingRight=4;whiteSpace=wrap;overflow=hidden;rotatable=0;points=[[0,0.5],[1,0.5]];portConstraint=eastwest;fontSize=14;" vertex="1" parent="6y2mxMuJmbYyFpyy88kN-16">
          <mxGeometry y="52" width="160" height="26" as="geometry" />
        </mxCell>
        <mxCell id="6y2mxMuJmbYyFpyy88kN-19" value="&lt;div style=&quot;text-align: center;&quot;&gt;&lt;br&gt;&lt;/div&gt;" style="text;html=1;strokeColor=none;fillColor=none;align=left;verticalAlign=top;spacingLeft=4;spacingRight=4;whiteSpace=wrap;overflow=hidden;rotatable=0;points=[[0,0.5],[1,0.5]];portConstraint=eastwest;fontSize=14;" vertex="1" parent="6y2mxMuJmbYyFpyy88kN-16">
          <mxGeometry y="78" width="160" height="26" as="geometry" />
        </mxCell>
        <mxCell id="6y2mxMuJmbYyFpyy88kN-20" value="patient_consult" style="swimlane;html=1;fontStyle=1;align=center;verticalAlign=top;childLayout=stackLayout;horizontal=1;startSize=26;horizontalStack=0;resizeParent=1;resizeLast=0;collapsible=1;marginBottom=0;swimlaneFillColor=#ffffff;rounded=0;shadow=0;comic=0;labelBackgroundColor=none;strokeWidth=1;fillColor=#eeeeee;fontFamily=Verdana;fontSize=14;strokeColor=#36393d;" vertex="1" parent="1">
          <mxGeometry x="-1120" y="90" width="160" height="120" as="geometry" />
        </mxCell>
        <mxCell id="6y2mxMuJmbYyFpyy88kN-21" value="&lt;div style=&quot;text-align: center;&quot;&gt;&lt;span style=&quot;background-color: initial;&quot;&gt;&lt;u&gt;patient_id&lt;/u&gt;: int (FK)&lt;/span&gt;&lt;/div&gt;" style="text;html=1;strokeColor=none;fillColor=none;align=left;verticalAlign=top;spacingLeft=4;spacingRight=4;whiteSpace=wrap;overflow=hidden;rotatable=0;points=[[0,0.5],[1,0.5]];portConstraint=eastwest;fontSize=14;" vertex="1" parent="6y2mxMuJmbYyFpyy88kN-20">
          <mxGeometry y="26" width="160" height="26" as="geometry" />
        </mxCell>
        <mxCell id="6y2mxMuJmbYyFpyy88kN-22" value="&lt;div style=&quot;text-align: center;&quot;&gt;&lt;span style=&quot;background-color: initial;&quot;&gt;Consult_id:Int (FK)&lt;/span&gt;&lt;/div&gt;" style="text;html=1;strokeColor=none;fillColor=none;align=left;verticalAlign=top;spacingLeft=4;spacingRight=4;whiteSpace=wrap;overflow=hidden;rotatable=0;points=[[0,0.5],[1,0.5]];portConstraint=eastwest;fontSize=14;" vertex="1" parent="6y2mxMuJmbYyFpyy88kN-20">
          <mxGeometry y="52" width="160" height="26" as="geometry" />
        </mxCell>
        <mxCell id="6y2mxMuJmbYyFpyy88kN-23" value="&lt;div style=&quot;text-align: center;&quot;&gt;&lt;span style=&quot;background-color: initial;&quot;&gt;PK(Patient_id,conult_id)&lt;/span&gt;&lt;/div&gt;" style="text;html=1;strokeColor=none;fillColor=none;align=left;verticalAlign=top;spacingLeft=4;spacingRight=4;whiteSpace=wrap;overflow=hidden;rotatable=0;points=[[0,0.5],[1,0.5]];portConstraint=eastwest;fontSize=14;" vertex="1" parent="6y2mxMuJmbYyFpyy88kN-20">
          <mxGeometry y="78" width="160" height="26" as="geometry" />
        </mxCell>
        <mxCell id="6y2mxMuJmbYyFpyy88kN-24" value="Consultatn" style="swimlane;html=1;fontStyle=1;align=center;verticalAlign=top;childLayout=stackLayout;horizontal=1;startSize=26;horizontalStack=0;resizeParent=1;resizeLast=0;collapsible=1;marginBottom=0;swimlaneFillColor=#ffffff;rounded=0;shadow=0;comic=0;labelBackgroundColor=none;strokeWidth=1;fillColor=#eeeeee;fontFamily=Verdana;fontSize=14;strokeColor=#36393d;" vertex="1" parent="1">
          <mxGeometry x="-1130" y="310" width="160" height="120" as="geometry" />
        </mxCell>
        <mxCell id="6y2mxMuJmbYyFpyy88kN-25" value="&lt;div style=&quot;text-align: center;&quot;&gt;&lt;span style=&quot;background-color: initial;&quot;&gt;&lt;u&gt;ID&lt;/u&gt;: int (PK)&lt;/span&gt;&lt;/div&gt;" style="text;html=1;strokeColor=none;fillColor=none;align=left;verticalAlign=top;spacingLeft=4;spacingRight=4;whiteSpace=wrap;overflow=hidden;rotatable=0;points=[[0,0.5],[1,0.5]];portConstraint=eastwest;fontSize=14;" vertex="1" parent="6y2mxMuJmbYyFpyy88kN-24">
          <mxGeometry y="26" width="160" height="26" as="geometry" />
        </mxCell>
        <mxCell id="6y2mxMuJmbYyFpyy88kN-26" value="&lt;div style=&quot;text-align: center;&quot;&gt;&lt;span style=&quot;background-color: initial;&quot;&gt;Name :varchar(50)&lt;/span&gt;&lt;/div&gt;" style="text;html=1;strokeColor=none;fillColor=none;align=left;verticalAlign=top;spacingLeft=4;spacingRight=4;whiteSpace=wrap;overflow=hidden;rotatable=0;points=[[0,0.5],[1,0.5]];portConstraint=eastwest;fontSize=14;" vertex="1" parent="6y2mxMuJmbYyFpyy88kN-24">
          <mxGeometry y="52" width="160" height="26" as="geometry" />
        </mxCell>
        <mxCell id="6y2mxMuJmbYyFpyy88kN-32" value="Drug_Brand_name" style="swimlane;html=1;fontStyle=1;align=center;verticalAlign=top;childLayout=stackLayout;horizontal=1;startSize=26;horizontalStack=0;resizeParent=1;resizeLast=0;collapsible=1;marginBottom=0;swimlaneFillColor=#ffffff;rounded=0;shadow=0;comic=0;labelBackgroundColor=none;strokeWidth=1;fillColor=#eeeeee;fontFamily=Verdana;fontSize=14;strokeColor=#36393d;" vertex="1" parent="1">
          <mxGeometry x="-730" y="510" width="180" height="132" as="geometry" />
        </mxCell>
        <mxCell id="6y2mxMuJmbYyFpyy88kN-33" value="&lt;div style=&quot;text-align: center;&quot;&gt;&lt;u&gt;Drug_Co_num : int (FK)&lt;/u&gt;&lt;/div&gt;" style="text;html=1;strokeColor=none;fillColor=none;align=left;verticalAlign=top;spacingLeft=4;spacingRight=4;whiteSpace=wrap;overflow=hidden;rotatable=0;points=[[0,0.5],[1,0.5]];portConstraint=eastwest;fontSize=14;" vertex="1" parent="6y2mxMuJmbYyFpyy88kN-32">
          <mxGeometry y="26" width="180" height="32" as="geometry" />
        </mxCell>
        <mxCell id="6y2mxMuJmbYyFpyy88kN-34" value="&lt;div style=&quot;text-align: center;&quot;&gt;&lt;span style=&quot;background-color: initial;&quot;&gt;Brand_name:varchar(50)&lt;/span&gt;&lt;/div&gt;" style="text;html=1;strokeColor=none;fillColor=none;align=left;verticalAlign=top;spacingLeft=4;spacingRight=4;whiteSpace=wrap;overflow=hidden;rotatable=0;points=[[0,0.5],[1,0.5]];portConstraint=eastwest;fontSize=14;" vertex="1" parent="6y2mxMuJmbYyFpyy88kN-32">
          <mxGeometry y="58" width="180" height="26" as="geometry" />
        </mxCell>
        <mxCell id="6y2mxMuJmbYyFpyy88kN-46" value="&lt;div style=&quot;text-align: center;&quot;&gt;&lt;span style=&quot;background-color: initial;&quot;&gt;PK(drug_code,brand_name)&lt;/span&gt;&lt;/div&gt;" style="text;html=1;strokeColor=none;fillColor=none;align=left;verticalAlign=top;spacingLeft=4;spacingRight=4;whiteSpace=wrap;overflow=hidden;rotatable=0;points=[[0,0.5],[1,0.5]];portConstraint=eastwest;fontSize=14;" vertex="1" parent="6y2mxMuJmbYyFpyy88kN-32">
          <mxGeometry y="84" width="180" height="26" as="geometry" />
        </mxCell>
        <mxCell id="6y2mxMuJmbYyFpyy88kN-70" style="edgeStyle=orthogonalEdgeStyle;rounded=0;orthogonalLoop=1;jettySize=auto;html=1;exitX=1;exitY=0;exitDx=0;exitDy=0;" edge="1" parent="1" source="6y2mxMuJmbYyFpyy88kN-36">
          <mxGeometry relative="1" as="geometry">
            <mxPoint x="-460" y="129" as="targetPoint" />
            <Array as="points">
              <mxPoint x="-780" y="440" />
              <mxPoint x="-440" y="440" />
              <mxPoint x="-440" y="129" />
            </Array>
          </mxGeometry>
        </mxCell>
        <mxCell id="6y2mxMuJmbYyFpyy88kN-36" value="Nurse_Patient_Drug" style="swimlane;html=1;fontStyle=1;align=center;verticalAlign=top;childLayout=stackLayout;horizontal=1;startSize=26;horizontalStack=0;resizeParent=1;resizeLast=0;collapsible=1;marginBottom=0;swimlaneFillColor=#ffffff;rounded=0;shadow=0;comic=0;labelBackgroundColor=none;strokeWidth=1;fillColor=#eeeeee;fontFamily=Verdana;fontSize=14;strokeColor=#36393d;" vertex="1" parent="1">
          <mxGeometry x="-1090" y="480" width="310" height="220" as="geometry" />
        </mxCell>
        <mxCell id="6y2mxMuJmbYyFpyy88kN-37" value="&lt;div style=&quot;text-align: center;&quot;&gt;&lt;span style=&quot;background-color: initial;&quot;&gt;patient_id: int (FK)&lt;/span&gt;&lt;/div&gt;" style="text;html=1;strokeColor=none;fillColor=none;align=left;verticalAlign=top;spacingLeft=4;spacingRight=4;whiteSpace=wrap;overflow=hidden;rotatable=0;points=[[0,0.5],[1,0.5]];portConstraint=eastwest;fontSize=14;" vertex="1" parent="6y2mxMuJmbYyFpyy88kN-36">
          <mxGeometry y="26" width="310" height="26" as="geometry" />
        </mxCell>
        <mxCell id="6y2mxMuJmbYyFpyy88kN-38" value="&lt;div style=&quot;text-align: center;&quot;&gt;&lt;span style=&quot;background-color: initial;&quot;&gt;Nurse_id:Int (FK)&lt;/span&gt;&lt;/div&gt;" style="text;html=1;strokeColor=none;fillColor=none;align=left;verticalAlign=top;spacingLeft=4;spacingRight=4;whiteSpace=wrap;overflow=hidden;rotatable=0;points=[[0,0.5],[1,0.5]];portConstraint=eastwest;fontSize=14;" vertex="1" parent="6y2mxMuJmbYyFpyy88kN-36">
          <mxGeometry y="52" width="310" height="26" as="geometry" />
        </mxCell>
        <mxCell id="6y2mxMuJmbYyFpyy88kN-39" value="&lt;div style=&quot;text-align: center;&quot;&gt;&lt;span style=&quot;background-color: initial;&quot;&gt;Drug_code :int (FK)&lt;/span&gt;&lt;/div&gt;" style="text;html=1;strokeColor=none;fillColor=none;align=left;verticalAlign=top;spacingLeft=4;spacingRight=4;whiteSpace=wrap;overflow=hidden;rotatable=0;points=[[0,0.5],[1,0.5]];portConstraint=eastwest;fontSize=14;" vertex="1" parent="6y2mxMuJmbYyFpyy88kN-36">
          <mxGeometry y="78" width="310" height="32" as="geometry" />
        </mxCell>
        <mxCell id="6y2mxMuJmbYyFpyy88kN-40" value="&lt;div style=&quot;text-align: center;&quot;&gt;&lt;span style=&quot;background-color: initial;&quot;&gt;Date_Time:Date&amp;nbsp;&lt;/span&gt;&lt;/div&gt;" style="text;html=1;strokeColor=none;fillColor=none;align=left;verticalAlign=top;spacingLeft=4;spacingRight=4;whiteSpace=wrap;overflow=hidden;rotatable=0;points=[[0,0.5],[1,0.5]];portConstraint=eastwest;fontSize=14;" vertex="1" parent="6y2mxMuJmbYyFpyy88kN-36">
          <mxGeometry y="110" width="310" height="26" as="geometry" />
        </mxCell>
        <mxCell id="6y2mxMuJmbYyFpyy88kN-41" value="&lt;div style=&quot;text-align: center;&quot;&gt;&lt;span style=&quot;background-color: initial;&quot;&gt;Dosage :varchar(30)&lt;/span&gt;&lt;/div&gt;" style="text;html=1;strokeColor=none;fillColor=none;align=left;verticalAlign=top;spacingLeft=4;spacingRight=4;whiteSpace=wrap;overflow=hidden;rotatable=0;points=[[0,0.5],[1,0.5]];portConstraint=eastwest;fontSize=14;" vertex="1" parent="6y2mxMuJmbYyFpyy88kN-36">
          <mxGeometry y="136" width="310" height="34" as="geometry" />
        </mxCell>
        <mxCell id="6y2mxMuJmbYyFpyy88kN-68" style="edgeStyle=orthogonalEdgeStyle;rounded=0;orthogonalLoop=1;jettySize=auto;html=1;exitX=1;exitY=0.5;exitDx=0;exitDy=0;" edge="1" parent="6y2mxMuJmbYyFpyy88kN-36" source="6y2mxMuJmbYyFpyy88kN-42">
          <mxGeometry relative="1" as="geometry">
            <mxPoint x="650" y="160" as="targetPoint" />
          </mxGeometry>
        </mxCell>
        <mxCell id="6y2mxMuJmbYyFpyy88kN-42" value="&lt;div style=&quot;text-align: center;&quot;&gt;&lt;span style=&quot;background-color: initial;&quot;&gt;PK(Patient_id,nurse_id,drug_code ,Date_time&lt;/span&gt;&lt;span style=&quot;background-color: initial;&quot;&gt;)&lt;/span&gt;&lt;/div&gt;" style="text;html=1;strokeColor=none;fillColor=none;align=left;verticalAlign=top;spacingLeft=4;spacingRight=4;whiteSpace=wrap;overflow=hidden;rotatable=0;points=[[0,0.5],[1,0.5]];portConstraint=eastwest;fontSize=14;" vertex="1" parent="6y2mxMuJmbYyFpyy88kN-36">
          <mxGeometry y="170" width="310" height="50" as="geometry" />
        </mxCell>
        <mxCell id="6y2mxMuJmbYyFpyy88kN-49" style="edgeStyle=orthogonalEdgeStyle;rounded=0;orthogonalLoop=1;jettySize=auto;html=1;exitX=1;exitY=0.5;exitDx=0;exitDy=0;entryX=0.021;entryY=-0.138;entryDx=0;entryDy=0;entryPerimeter=0;" edge="1" parent="1" source="6y2mxMuJmbYyFpyy88kN-21" target="6y2mxMuJmbYyFpyy88kN-3">
          <mxGeometry relative="1" as="geometry" />
        </mxCell>
        <mxCell id="6y2mxMuJmbYyFpyy88kN-50" style="edgeStyle=orthogonalEdgeStyle;rounded=0;orthogonalLoop=1;jettySize=auto;html=1;exitX=0.5;exitY=1;exitDx=0;exitDy=0;entryX=0.561;entryY=-0.007;entryDx=0;entryDy=0;entryPerimeter=0;" edge="1" parent="1" source="6y2mxMuJmbYyFpyy88kN-20" target="6y2mxMuJmbYyFpyy88kN-24">
          <mxGeometry relative="1" as="geometry" />
        </mxCell>
        <mxCell id="6y2mxMuJmbYyFpyy88kN-52" style="edgeStyle=orthogonalEdgeStyle;rounded=0;orthogonalLoop=1;jettySize=auto;html=1;exitX=0;exitY=0.5;exitDx=0;exitDy=0;entryX=0.851;entryY=-0.02;entryDx=0;entryDy=0;entryPerimeter=0;" edge="1" parent="1" source="6y2mxMuJmbYyFpyy88kN-30" target="6y2mxMuJmbYyFpyy88kN-24">
          <mxGeometry relative="1" as="geometry" />
        </mxCell>
        <mxCell id="6y2mxMuJmbYyFpyy88kN-53" style="edgeStyle=orthogonalEdgeStyle;rounded=0;orthogonalLoop=1;jettySize=auto;html=1;exitX=0.5;exitY=1;exitDx=0;exitDy=0;entryX=0.409;entryY=-0.003;entryDx=0;entryDy=0;entryPerimeter=0;" edge="1" parent="1" source="6y2mxMuJmbYyFpyy88kN-1" target="6y2mxMuJmbYyFpyy88kN-12">
          <mxGeometry relative="1" as="geometry" />
        </mxCell>
        <mxCell id="6y2mxMuJmbYyFpyy88kN-54" style="edgeStyle=orthogonalEdgeStyle;rounded=0;orthogonalLoop=1;jettySize=auto;html=1;exitX=0;exitY=0.5;exitDx=0;exitDy=0;entryX=1;entryY=0;entryDx=0;entryDy=0;" edge="1" parent="1" source="6y2mxMuJmbYyFpyy88kN-11" target="6y2mxMuJmbYyFpyy88kN-12">
          <mxGeometry relative="1" as="geometry" />
        </mxCell>
        <mxCell id="6y2mxMuJmbYyFpyy88kN-60" style="edgeStyle=orthogonalEdgeStyle;rounded=0;orthogonalLoop=1;jettySize=auto;html=1;exitX=0.5;exitY=0;exitDx=0;exitDy=0;entryX=0.5;entryY=1;entryDx=0;entryDy=0;" edge="1" parent="1" source="6y2mxMuJmbYyFpyy88kN-56" target="6y2mxMuJmbYyFpyy88kN-8">
          <mxGeometry relative="1" as="geometry" />
        </mxCell>
        <mxCell id="6y2mxMuJmbYyFpyy88kN-56" value="Nurse_supervise" style="swimlane;html=1;fontStyle=1;align=center;verticalAlign=top;childLayout=stackLayout;horizontal=1;startSize=26;horizontalStack=0;resizeParent=1;resizeLast=0;collapsible=1;marginBottom=0;swimlaneFillColor=#ffffff;rounded=0;shadow=0;comic=0;labelBackgroundColor=none;strokeWidth=1;fillColor=#eeeeee;fontFamily=Verdana;fontSize=14;strokeColor=#36393d;" vertex="1" parent="1">
          <mxGeometry x="-640" y="260" width="160" height="120" as="geometry" />
        </mxCell>
        <mxCell id="6y2mxMuJmbYyFpyy88kN-57" value="&lt;div style=&quot;text-align: center;&quot;&gt;&lt;span style=&quot;background-color: initial;&quot;&gt;&lt;u&gt;Nurse_id&lt;/u&gt;: int (FK)&lt;/span&gt;&lt;/div&gt;" style="text;html=1;strokeColor=none;fillColor=none;align=left;verticalAlign=top;spacingLeft=4;spacingRight=4;whiteSpace=wrap;overflow=hidden;rotatable=0;points=[[0,0.5],[1,0.5]];portConstraint=eastwest;fontSize=14;" vertex="1" parent="6y2mxMuJmbYyFpyy88kN-56">
          <mxGeometry y="26" width="160" height="26" as="geometry" />
        </mxCell>
        <mxCell id="6y2mxMuJmbYyFpyy88kN-58" value="&lt;div style=&quot;text-align: center;&quot;&gt;&lt;span style=&quot;background-color: initial;&quot;&gt;ward_id:Int (FK)&lt;/span&gt;&lt;/div&gt;" style="text;html=1;strokeColor=none;fillColor=none;align=left;verticalAlign=top;spacingLeft=4;spacingRight=4;whiteSpace=wrap;overflow=hidden;rotatable=0;points=[[0,0.5],[1,0.5]];portConstraint=eastwest;fontSize=14;" vertex="1" parent="6y2mxMuJmbYyFpyy88kN-56">
          <mxGeometry y="52" width="160" height="26" as="geometry" />
        </mxCell>
        <mxCell id="6y2mxMuJmbYyFpyy88kN-65" style="edgeStyle=orthogonalEdgeStyle;rounded=0;orthogonalLoop=1;jettySize=auto;html=1;exitX=0;exitY=0.5;exitDx=0;exitDy=0;" edge="1" parent="6y2mxMuJmbYyFpyy88kN-56" source="6y2mxMuJmbYyFpyy88kN-59">
          <mxGeometry relative="1" as="geometry">
            <mxPoint x="-40" y="91" as="targetPoint" />
          </mxGeometry>
        </mxCell>
        <mxCell id="6y2mxMuJmbYyFpyy88kN-59" value="&lt;div style=&quot;text-align: center;&quot;&gt;&lt;span style=&quot;background-color: initial;&quot;&gt;PK(Nurse_id,Ward_id)&lt;/span&gt;&lt;/div&gt;" style="text;html=1;strokeColor=none;fillColor=none;align=left;verticalAlign=top;spacingLeft=4;spacingRight=4;whiteSpace=wrap;overflow=hidden;rotatable=0;points=[[0,0.5],[1,0.5]];portConstraint=eastwest;fontSize=14;" vertex="1" parent="6y2mxMuJmbYyFpyy88kN-56">
          <mxGeometry y="78" width="160" height="26" as="geometry" />
        </mxCell>
        <mxCell id="6y2mxMuJmbYyFpyy88kN-67" style="edgeStyle=orthogonalEdgeStyle;rounded=0;orthogonalLoop=1;jettySize=auto;html=1;exitX=1;exitY=0.5;exitDx=0;exitDy=0;entryX=0.011;entryY=0.862;entryDx=0;entryDy=0;entryPerimeter=0;" edge="1" parent="1" source="6y2mxMuJmbYyFpyy88kN-34" target="6y2mxMuJmbYyFpyy88kN-18">
          <mxGeometry relative="1" as="geometry" />
        </mxCell>
        <mxCell id="6y2mxMuJmbYyFpyy88kN-69" style="edgeStyle=orthogonalEdgeStyle;rounded=0;orthogonalLoop=1;jettySize=auto;html=1;exitX=0.5;exitY=0;exitDx=0;exitDy=0;entryX=0.009;entryY=0.923;entryDx=0;entryDy=0;entryPerimeter=0;" edge="1" parent="1" source="6y2mxMuJmbYyFpyy88kN-36" target="6y2mxMuJmbYyFpyy88kN-30">
          <mxGeometry relative="1" as="geometry" />
        </mxCell>
      </root>
    </mxGraphModel>
  </diagram>
  <diagram id="81dTth-INMlviA6CUZYF" name="Page-3">
    <mxGraphModel grid="1" page="1" gridSize="10" guides="1" tooltips="1" connect="1" arrows="1" fold="1" pageScale="1" pageWidth="1169" pageHeight="827" math="0" shadow="0">
      <root>
        <mxCell id="0" />
        <mxCell id="1" parent="0" />
      </root>
    </mxGraphModel>
  </diagram>
</mxfile>
